<?xml version="1.0" encoding="UTF-8" standalone="no"?>
<!-- Created with Inkscape (http://www.inkscape.org/) -->

<svg
   width="10cm"
   height="10cm"
   viewBox="0 0 100 100"
   version="1.1"
   id="svg1"
   xml:space="preserve"
   sodipodi:docname="FAUltiere4head1.svg"
   inkscape:version="1.4.2 (ebf0e940d0, 2025-05-08)"
   inkscape:export-filename="FAUltiere4.webp"
   inkscape:export-xdpi="274.32001"
   inkscape:export-ydpi="274.32001"
   xmlns:inkscape="http://www.inkscape.org/namespaces/inkscape"
   xmlns:sodipodi="http://sodipodi.sourceforge.net/DTD/sodipodi-0.dtd"
   xmlns="http://www.w3.org/2000/svg"
   xmlns:svg="http://www.w3.org/2000/svg"><sodipodi:namedview
     id="namedview1"
     pagecolor="#ffffff"
     bordercolor="#000000"
     borderopacity="0.25"
     inkscape:showpageshadow="2"
     inkscape:pageopacity="0.0"
     inkscape:pagecheckerboard="0"
     inkscape:deskcolor="#d1d1d1"
     inkscape:document-units="mm"
     inkscape:zoom="2"
     inkscape:cx="88"
     inkscape:cy="117"
     inkscape:window-width="2560"
     inkscape:window-height="1388"
     inkscape:window-x="2560"
     inkscape:window-y="52"
     inkscape:window-maximized="1"
     inkscape:current-layer="layer1" /><defs
     id="defs1" /><g
     id="layer1"
     transform="translate(-14.790851,-30.240375)"><rect
       style="opacity:0.5571;fill:#654874;fill-opacity:1;stroke:none;stroke-width:0.109173;stroke-opacity:1"
       id="rect1"
       width="101.85162"
       height="101.66632"
       x="13.863596"
       y="29.404566" /><path
       style="fill:#ffffff;fill-opacity:1;stroke:#000000;stroke-width:0.349143;stroke-opacity:1"
       d="m 64.067843,75.464737 c -0.0381,8.86e-4 -0.381058,0.09998 -0.76211,0.220731 -0.381059,0.120756 -0.901225,0.247476 -1.155933,0.281613 -0.43704,0.05857 -0.472136,0.0839 -0.623549,0.449974 -0.346392,0.8375 -0.09107,2.338027 0.530994,3.120566 0.376922,0.47417 0.385996,0.5129 0.13851,0.591447 -0.571703,0.181452 -1.383559,-0.55057 -1.755954,-1.583277 -0.183902,-0.509992 -0.229583,-0.815203 -0.233181,-1.558007 -0.0024,-0.508075 -0.03468,-0.916497 -0.0716,-0.907608 -0.219273,0.05282 -0.266059,0.118699 -0.350188,0.493133 -0.0993,0.441951 -0.06265,0.907766 0.162279,2.062811 0.156126,0.801717 0.11487,1.170737 -0.130386,1.16623 -0.278166,-0.005 -0.474545,-0.229646 -0.773816,-0.884762 -0.351448,-0.769338 -0.44149,-1.680211 -0.260769,-2.637992 0.1162,-0.615837 0.113131,-0.648687 -0.07852,-0.840342 -0.123481,-0.123483 -0.229835,-0.165637 -0.27922,-0.11066 -0.178549,0.198726 -0.406466,1.6984 -0.430342,2.831604 -0.01383,0.656112 -0.04529,1.213087 -0.06992,1.237718 -0.11684,0.116842 -0.534097,-0.205952 -0.653874,-0.505846 -0.370952,-0.928763 -0.430099,-2.925178 -0.112504,-3.797436 0.08313,-0.228314 0.21427,-0.727152 0.291419,-1.108526 0.172792,-0.854151 0.545918,-1.679592 1.044159,-2.309917 0.208058,-0.263212 0.378288,-0.508121 0.378288,-0.544241 0,-0.0361 -0.197456,-0.160182 -0.438792,-0.275688 -0.759852,-0.363684 -1.71425,-0.955388 -2.21227,-1.371557 -0.976973,-0.816413 -1.54319,-1.455722 -1.443654,-1.630021 0.03285,-0.05754 0.02512,-0.07321 -0.01717,-0.03484 -0.0423,0.03838 -0.192366,-0.104595 -0.333478,-0.317748 l -0.256566,-0.387545 0.882486,-3.900066 0.291341,-0.05431 -0.291341,-0.614932 c -0.278599,-0.588038 -0.290998,-0.663415 -0.283494,-1.723459 0.0061,-0.862752 0.04938,-1.226115 0.195178,-1.6389 0.197176,-0.558251 0.169107,-0.659662 -0.203025,-0.733492 -0.13956,-0.02769 -0.179979,-0.101713 -0.165235,-0.302614 0.02511,-0.342162 0.391078,-0.792943 1.189577,-1.465272 0.351147,-0.295662 0.652304,-0.576257 0.66924,-0.623546 0.01694,-0.04729 -0.136498,-0.08598 -0.340963,-0.08598 -0.204465,0 -0.394387,-0.03662 -0.422046,-0.08137 -0.0601,-0.09723 0.371603,-0.657208 0.796898,-1.033681 0.280984,-0.248729 1.130955,-0.63942 1.393725,-0.640629 0.266629,-0.0013 0.804864,-0.201836 0.75556,-0.281611 -0.02971,-0.04806 -0.0086,-0.08738 0.04698,-0.08738 0.108494,0 0.09021,-0.341691 -0.02842,-0.53089 -0.05531,-0.08821 -0.0189,-0.09492 0.15538,-0.02867 0.201327,0.07654 0.234663,0.05785 0.288731,-0.161939 0.189693,-0.771093 0.762614,-1.28805 1.234167,-1.113611 0.178579,0.06607 0.204971,0.124031 0.156643,0.344072 -0.05227,0.23796 0.101902,1.121516 0.195689,1.121516 0.02093,0 0.157363,-0.135101 0.303199,-0.300226 0.376768,-0.426605 1.15639,-0.869026 1.837881,-1.04296 0.695842,-0.177596 0.874689,-0.137215 0.795192,0.179541 -0.05305,0.21135 -0.02764,0.229926 0.390336,0.285314 0.722196,0.0957 2.063083,0.496971 2.55455,0.76446 0.71829,0.390943 2.005914,1.667515 2.420189,2.39941 0.0069,0.01226 0.799337,0.03834 1.760883,0.05796 2.137144,0.04359 3.962772,0.558419 4.910378,0.788585 0.782984,0.190181 3.17862,0.725947 2.905764,1.750618 -2.006568,7.535357 -9.05361,13.819258 -9.151965,13.919265 -0.923617,0.957826 -1.698632,1.482092 -2.702885,2.06705 l -0.727732,0.423889 c 0,0 -1.876594,0.693397 -1.914714,0.694044 z m -0.741202,-1.351728 c 2.096209,-0.517864 3.499658,-1.736331 5.328375,-3.401559 1.314203,-1.196712 2.033125,-2.134052 2.796354,-3.076125 0.991506,-1.22384 6.023848,-7.896325 5.387823,-8.88862 -0.347528,-0.542196 -1.281669,-0.675698 -2.415441,-1.017877 -0.631543,-0.190603 -1.701259,-0.458122 -2.98862,-0.514664 -0.58429,-0.02566 -1.255188,-0.06373 -1.490901,-0.0846 l -0.428553,-0.03794 0.04814,0.943259 c 0.02827,0.553477 0.0046,1.146335 -0.05725,1.434696 -0.168768,0.78692 -0.648419,1.835001 -1.241474,2.712722 -0.372655,0.551529 -0.649085,1.101435 -0.855391,1.701647 -0.370893,1.079037 -0.930781,2.02044 -1.870176,3.144539 -0.890448,1.065525 -1.550668,1.641246 -3.295927,2.874095 -2.009043,1.419184 -3.136551,2.606076 -3.32196,3.496917 -0.108852,0.522998 0.393131,0.802736 1.705358,0.950342 0.835889,0.09403 1.649443,0.02266 2.69985,-0.23684 z m -2.252156,-5.086647 c 0.932416,-0.629405 1.911264,-1.537117 1.81884,-1.686662 -0.04647,-0.07518 -0.572664,-0.101914 -1.789723,-0.0909 -0.948148,0.0086 -2.482552,-0.01599 -3.409789,-0.05455 -1.415562,-0.0589 -1.685884,-0.04944 -1.685884,0.05897 0,0.07101 0.363736,0.485377 0.808301,0.920817 0.809427,0.792815 1.531862,1.237601 2.47109,1.521393 0.468119,0.141441 0.733816,0.04195 1.787165,-0.669064 z M 59.09469,65.56646 c -0.02223,-0.03597 -0.175057,-0.09465 -0.339598,-0.130368 -0.164541,-0.03575 -0.714864,-0.277949 -1.222938,-0.538278 l -0.923773,-0.473327 c 0,0 2.966136,1.918191 2.486311,1.142004 z m 5.855353,-0.190485 c 0.06097,-0.06097 0.110851,-0.165742 0.110851,-0.232822 0,-0.08995 -0.09701,-0.07248 -0.369506,0.06655 -0.203235,0.103678 -0.369511,0.208448 -0.369511,0.232821 0,0.09399 0.523025,0.0386 0.628166,-0.06655 z m -1.82907,-1.331111 c 1.424612,-0.295734 2.760579,-1.157057 3.805297,-2.453346 0.429705,-0.53318 1.033156,-1.654514 1.141001,-2.120209 0.07044,-0.304195 -0.05232,-0.336124 -1.57453,-0.409532 -1.334929,-0.06438 -1.906297,-0.174802 -2.418146,-0.467345 -0.823343,-0.470574 -0.999319,-1.099886 -0.482799,-1.726514 0.495603,-0.601256 0.910484,-0.758572 1.977174,-0.749715 0.797103,0.0066 0.999341,0.04197 1.474893,0.257779 0.303119,0.13756 0.632333,0.321172 0.731587,0.408027 0.171088,0.149712 0.177258,0.149139 0.118721,-0.01106 -0.134391,-0.367693 -0.7504,-1.192414 -1.111924,-1.488654 -0.716809,-0.587371 -1.31168,-0.821727 -2.196134,-0.865185 -1.069585,-0.05256 -1.580635,0.119318 -2.277733,0.766039 -0.289782,0.26884 -0.67237,0.744114 -0.850195,1.056165 -0.218643,0.383672 -0.368182,0.553507 -0.461888,0.524569 -0.07621,-0.02354 -0.304843,-0.106058 -0.508073,-0.183376 -0.851102,-0.323809 -2.214459,-0.120157 -2.949656,0.440603 -0.647964,0.494227 -1.263308,1.687307 -1.439685,2.791386 -0.151957,0.951214 0.152611,2.715048 0.330099,1.911691 0.179605,-0.812938 0.356305,-1.264135 0.691845,-1.766613 0.689819,-1.033012 1.563734,-1.538659 2.550661,-1.475817 0.447884,0.02852 0.63763,0.08552 0.789159,0.237043 0.190448,0.190447 0.194267,0.227957 0.0842,0.826894 -0.18156,0.987962 -0.382856,1.32493 -1.481397,2.479865 -0.562771,0.591661 -1.02322,1.147108 -1.02322,1.234325 0,0.302769 1.191875,0.789003 2.261075,0.922422 0.703584,0.08779 2.044311,0.02147 2.81967,-0.13948 z M 61.393202,62.90168 c -0.620272,-0.1321 -1.135921,-0.455758 -1.135921,-0.712981 0,-0.164258 0.446703,-0.581724 0.622464,-0.581724 0.07348,0 0.239296,0.08313 0.368478,0.184755 0.787532,0.619473 3.350784,-0.374477 3.350784,-1.299328 0,-0.318511 0.382902,-0.678112 0.636381,-0.59766 0.104617,0.0332 0.279608,0.185912 0.388866,0.339351 0.231973,0.325775 0.187545,0.479801 -0.349383,1.211243 -0.344535,0.469348 -0.837383,0.849795 -1.591632,1.228632 -0.519594,0.260977 -1.620048,0.370401 -2.290037,0.227712 z m 0.18635,-2.029123 c -0.529472,-0.322843 -0.641207,-0.867049 -0.301832,-1.470055 0.314675,-0.559124 0.764731,-0.797785 1.504419,-0.797785 0.596048,0 0.646103,0.01677 0.900675,0.301684 0.182015,0.203708 0.269554,0.400337 0.269554,0.60546 0,0.389199 -0.455723,1.113985 -0.852578,1.355949 -0.400552,0.244217 -1.123795,0.246476 -1.520238,0.0047 z m 0.471896,-1.440694 c 0.08422,-0.335566 -0.02165,-0.455804 -0.232926,-0.264583 -0.229651,0.207833 -0.230145,0.499775 -8.86e-4,0.499775 0.110191,0 0.196547,-0.08688 0.233768,-0.235192 z m -3.089585,1.298882 c 0.391824,-0.247347 0.5564,-0.478204 0.5564,-0.780482 0,-0.292869 -0.221729,-0.231392 -0.827782,0.229515 -0.67862,0.516096 -0.71741,0.575196 -0.448339,0.683111 0.306755,0.123028 0.319092,0.120762 0.719721,-0.132144 z m 6.762297,-2.763194 c 0.904813,-0.189312 1.046095,-0.326453 0.523854,-0.508508 -0.852469,-0.297173 -1.806146,0.074 -1.353399,0.526751 0.136244,0.136243 0.08589,0.137351 0.829545,-0.01824 z m -6.82553,-2.933806 c 0.264649,-0.141636 0.132696,-0.306644 -0.26513,-0.331548 -0.421033,-0.02635 -0.738336,0.167835 -0.650071,0.39785 0.04684,0.122056 0.128451,0.140026 0.402488,0.08862 0.189057,-0.03547 0.419777,-0.105175 0.512713,-0.154918 z m 3.602479,-1.385787 c 0.213908,-0.109632 0.340068,-0.215987 0.280353,-0.23634 -0.107443,-0.03662 -0.86139,0.30593 -0.86139,0.391366 0,0.09232 0.205365,0.03753 0.581037,-0.155026 z m -7.753327,-0.30945 c -0.066,-0.171991 0.04208,-0.338174 1.088839,-1.674232 0.458804,-0.585605 0.811356,-1.087568 0.78345,-1.115475 -0.02791,-0.0279 -0.29137,-0.07659 -0.585478,-0.108191 -0.5198,-0.05585 -0.534738,-0.0652 -0.534738,-0.334588 V 49.82889 l 0.785207,-0.02901 c 0.431862,-0.01596 1.003446,-0.0026 1.270186,0.02974 0.482909,0.05851 0.48498,0.06016 0.48498,0.386578 0,0.27695 -0.129422,0.484083 -0.833974,1.334732 -0.52101,0.629051 -0.789672,1.022415 -0.715922,1.048229 0.06493,0.02272 0.305113,0.05304 0.533747,0.06737 0.344051,0.02156 0.420544,0.06005 0.44382,0.223244 0.01801,0.126306 -0.06119,0.267434 -0.220307,0.392604 -0.221325,0.174094 -0.368324,0.195414 -1.347397,0.195414 -0.894144,0 -1.108929,-0.02596 -1.152413,-0.13928 z M 51.850956,51.01398 c -0.616127,-0.0618 -1.895136,-0.222095 -2.193959,-0.274959 -0.575063,-0.101735 -0.375117,-0.532182 0.895168,-1.92715 0.369698,-0.405982 0.877301,-0.936694 1.128008,-1.179358 0.250708,-0.242665 0.434032,-0.47648 0.40739,-0.519588 -0.02664,-0.04311 -0.279306,-0.09752 -0.561473,-0.120925 -0.564061,-0.04677 -0.72848,-0.145707 -0.637255,-0.383434 0.110716,-0.288507 0.345054,-0.329439 1.339441,-0.233958 1.387681,0.133247 1.377847,0.12995 1.377847,0.461846 0,0.236787 -0.173402,0.460751 -1.053585,1.360803 -1.231298,1.259092 -1.549824,1.630179 -1.468816,1.711188 0.03245,0.03245 0.353461,0.05964 0.713347,0.06042 0.359886,7.39e-4 0.702591,0.03211 0.761564,0.06964 0.223041,0.141913 -0.09176,1.092599 -0.338168,1.021275 -0.0254,-0.0074 -0.191682,-0.02796 -0.369509,-0.0458 z M 48.340622,48.347056 C 48.010374,48.2745 47.52193,48.169974 47.25519,48.114782 c -0.38035,-0.0787 -0.48498,-0.138339 -0.48498,-0.276442 0,-0.195457 1.379169,-1.419589 2.157263,-1.914758 0.549326,-0.349584 0.63284,-0.482611 0.302977,-0.482611 -0.128751,0 -0.443988,-0.04502 -0.700526,-0.100037 -0.405464,-0.08696 -0.466433,-0.129478 -0.466433,-0.3253 0,-0.383813 0.28931,-0.430184 1.461913,-0.234317 0.575418,0.09612 1.089919,0.218459 1.143333,0.271873 0.252086,0.252088 -0.02668,0.565037 -1.304605,1.464607 -0.707104,0.49775 -1.270086,0.930172 -1.251073,0.960935 0.01901,0.03076 0.386801,0.108337 0.817307,0.172389 0.829648,0.123429 0.942684,0.208056 0.762718,0.571021 -0.136561,0.275424 -0.510296,0.309942 -1.352462,0.12491 z m -3.279391,-1.759131 c -0.508073,-0.118552 -1.017303,-0.238845 -1.131621,-0.267314 -0.144671,-0.03603 -0.207847,-0.120333 -0.207847,-0.27735 0,-0.281677 0.23079,-0.500246 1.10502,-1.046505 l 0.689324,-0.430722 -0.477975,-0.0937 c -0.607729,-0.119138 -0.79055,-0.282013 -0.531285,-0.473316 0.147569,-0.108884 0.360825,-0.123763 1.062337,-0.07411 1.012071,0.07164 1.201026,0.143178 1.201026,0.454714 0,0.184354 -0.130465,0.300111 -0.715922,0.635218 -0.39376,0.225379 -0.818865,0.491699 -0.94468,0.591819 l -0.228757,0.182037 0.552076,0.105735 c 1.007099,0.192882 1.104373,0.231857 1.136525,0.455381 0.03873,0.269291 -0.136966,0.480016 -0.38791,0.465236 -0.108092,-0.0064 -0.612235,-0.108572 -1.120311,-0.227127 z"
       id="path34"
       sodipodi:nodetypes="cssssssccsscssscsssssssssssscccsssssssssscsssssssssssssccsssscccsssssscccssssssccssccsssssccscccsscsscssssscsscssssssssssssssssccssscsssssscsssssccccsccssssssssssssssssssssssssscscssssssssscsssscsssssccccssssssssssscssssssscsssssscsscss" /></g></svg>
