<?xml version="1.0" encoding="UTF-8" standalone="no"?>
<!-- Created with Inkscape (http://www.inkscape.org/) -->

<svg
   width="189.94118mm"
   height="208.63905mm"
   viewBox="0 0 189.94118 208.63905"
   version="1.1"
   id="svg1"
   xml:space="preserve"
   sodipodi:docname="FAUltiere2.svg"
   inkscape:version="1.4.2 (ebf0e940d0, 2025-05-08)"
   xmlns:inkscape="http://www.inkscape.org/namespaces/inkscape"
   xmlns:sodipodi="http://sodipodi.sourceforge.net/DTD/sodipodi-0.dtd"
   xmlns="http://www.w3.org/2000/svg"
   xmlns:svg="http://www.w3.org/2000/svg"><sodipodi:namedview
     id="namedview1"
     pagecolor="#ffffff"
     bordercolor="#000000"
     borderopacity="0.25"
     inkscape:showpageshadow="2"
     inkscape:pageopacity="0.0"
     inkscape:pagecheckerboard="0"
     inkscape:deskcolor="#d1d1d1"
     inkscape:document-units="mm"
     inkscape:zoom="1.0634977"
     inkscape:cx="217.2078"
     inkscape:cy="340.38624"
     inkscape:window-width="2560"
     inkscape:window-height="1388"
     inkscape:window-x="2560"
     inkscape:window-y="52"
     inkscape:window-maximized="1"
     inkscape:current-layer="layer1" /><defs
     id="defs1" /><g
     id="layer1"
     transform="translate(-14.790851,-30.240375)"><rect
       style="opacity:0.5571;fill:#654874;fill-opacity:1;stroke:none;stroke-width:0.264999;stroke-opacity:1"
       id="rect1"
       width="256.24957"
       height="238.08818"
       x="-11.580463"
       y="16.308359" /><path
       style="fill:#ffffff;fill-opacity:1;stroke:#ffffff;stroke-opacity:1"
       d="m 104.84579,238.64574 c -2.77587,-0.2918 -4.27066,-0.68864 -8.272873,-2.19633 -7.900372,-2.97619 -15.163642,-9.48058 -19.4015,-17.37441 -4.240635,-7.89901 -5.615705,-16.79977 -3.883145,-25.13542 1.345267,-6.47231 2.950041,-10.5226 5.922091,-14.94677 4.534893,-6.75061 13.735381,-13.108 21.455847,-14.82564 l 1.91389,-0.4258 0.16543,-2.70362 c 0.091,-1.48699 0.30606,-3.11606 0.47795,-3.62016 0.50192,-1.47196 1.79047,-3.16185 2.76545,-3.62678 l 0.90274,-0.43049 v -16.35516 c 0,-8.99534 -0.0893,-16.35364 -0.19844,-16.35178 -0.10914,0.002 -1.09141,0.28635 -2.18281,0.6322 -1.09141,0.34586 -2.58126,0.70882 -3.31078,0.80659 -1.251751,0.16775 -1.352268,0.24028 -1.785939,1.2888 -0.992125,2.39873 -0.260826,6.69648 1.520849,8.93781 1.07957,1.35809 1.10555,1.46902 0.39671,1.694 -1.637443,0.5197 -3.962734,-1.57693 -5.029334,-4.53477 -0.526726,-1.46069 -0.657562,-2.33487 -0.66787,-4.46238 -0.0071,-1.45521 -0.09933,-2.625 -0.205052,-2.59954 -0.628037,0.15128 -0.762037,0.33997 -1.002997,1.41241 -0.284412,1.26582 -0.179455,2.59999 0.464795,5.90823 0.447172,2.29625 0.329006,3.35318 -0.373447,3.34027 -0.796713,-0.0146 -1.359174,-0.65774 -2.216334,-2.5341 -1.006607,-2.20351 -1.264499,-4.8124 -0.746886,-7.55564 0.332815,-1.76386 0.324024,-1.85794 -0.224908,-2.40688 -0.353673,-0.35367 -0.658287,-0.4744 -0.799736,-0.31696 -0.511389,0.56918 -1.164183,4.8645 -1.232568,8.11018 -0.0396,1.87921 -0.129714,3.47447 -0.200265,3.54502 -0.33465,0.33465 -1.529741,-0.58988 -1.872803,-1.44882 -1.062467,-2.66013 -1.231872,-8.37819 -0.322231,-10.87648 0.238101,-0.65393 0.613705,-2.08268 0.834675,-3.175 0.494902,-2.44643 1.563597,-4.81062 2.990641,-6.61597 0.595912,-0.75388 1.083477,-1.45535 1.083477,-1.5588 0,-0.10346 -0.565547,-0.45879 -1.256771,-0.78962 -2.176339,-1.04164 -4.909891,-2.73638 -6.3363,-3.92836 -2.798211,-2.33833 -4.419946,-4.169423 -4.134862,-4.668645 0.09411,-0.164797 0.07198,-0.20967 -0.04918,-0.09972 -0.121157,0.109953 -0.550967,-0.299583 -0.955132,-0.91008 l -0.734847,-1.109995 -7.884683,0.0534 C 66.122067,96.8199 61.133249,96.917124 59.37238,97.006583 55.763037,97.189951 55.525198,97.138847 51.46146,95.30679 48.143352,93.81089 45.078171,92.468852 40.348962,90.441374 38.31167,89.567958 32.616054,86.819071 27.692037,84.332736 17.899798,79.388238 17.139802,78.86324 15.752824,76.085255 c -1.019377,-2.041717 -1.277613,-5.772932 -0.537546,-7.766911 1.01278,-2.728751 3.657391,-4.5191 7.015363,-4.749261 2.591715,-0.17764 3.834998,0.224478 7.290128,2.357864 1.44436,0.891828 4.53111,2.774186 6.859443,4.183018 2.328333,1.408833 5.662083,3.518462 7.408333,4.688066 4.103366,2.748353 13.040078,8.243201 15.081249,9.272893 3.238538,1.633716 3.685573,1.691916 12.832291,1.670639 4.583906,-0.01066 8.709877,-0.08938 9.168824,-0.174937 l 0.834449,-0.15555 -0.834449,-1.761266 c -0.797954,-1.684234 -0.833467,-1.900128 -0.811975,-4.936265 0.01749,-2.471064 0.141434,-3.511798 0.559021,-4.694077 0.564746,-1.598921 0.48435,-1.889379 -0.581495,-2.100841 -0.399723,-0.0793 -0.515491,-0.291324 -0.473261,-0.866736 0.07193,-0.980006 1.12011,-2.271117 3.407141,-4.196775 1.005741,-0.846824 1.868307,-1.650496 1.916814,-1.785938 0.04851,-0.135441 -0.390951,-0.246257 -0.976573,-0.246257 -0.585622,0 -1.129586,-0.104879 -1.208809,-0.233065 -0.172124,-0.278502 1.064333,-1.882349 2.282444,-2.960629 0.804783,-0.7124 3.23924,-1.831403 3.991856,-1.834865 0.76367,-0.0035 2.305259,-0.578092 2.164045,-0.806581 -0.08507,-0.137652 -0.02452,-0.250277 0.13457,-0.250277 0.310748,0 0.258355,-0.978657 -0.0814,-1.520554 -0.1584,-0.25264 -0.05415,-0.271868 0.445036,-0.08208 0.576632,0.219235 0.672108,0.165686 0.826971,-0.463821 0.543313,-2.208535 2.184253,-3.689182 3.534858,-3.189561 0.511479,0.189209 0.587069,0.355245 0.448647,0.985478 -0.149695,0.681557 0.29187,3.212204 0.560488,3.212204 0.05993,0 0.450712,-0.386953 0.868402,-0.859896 1.07912,-1.221866 3.312091,-2.489032 5.263991,-2.987208 1.993,-0.508664 2.50526,-0.393005 2.27756,0.514234 -0.15194,0.605342 -0.0791,0.658547 1.11798,0.817187 2.06849,0.274113 5.90901,1.423404 7.31665,2.189539 2.0573,1.119724 5.74527,4.776034 6.93181,6.8723 0.0199,0.03513 2.28944,0.109829 5.04346,0.166007 6.12113,0.124863 9.43221,0.717169 13.68522,2.448092 3.50335,1.425821 6.05193,2.872262 8.41731,4.777239 3.65256,2.941609 8.06478,8.697553 9.29891,12.13087 l 0.66326,1.845176 8.43172,0.162539 c 4.63745,0.0894 14.0872,0.179357 20.99944,0.199913 7.8747,0.02342 12.94258,0.141475 13.5716,0.316151 1.41896,0.394038 3.23666,2.222161 3.6145,3.635221 0.9325,3.487389 -1.14883,6.229761 -5.07323,6.684504 -1.05953,0.122775 -10.43938,0.238487 -20.84412,0.257139 l -18.91771,0.03391 1.19062,0.537818 c 1.62481,0.733941 2.08918,1.183757 2.81304,2.724885 2.26419,4.82051 -2.15959,9.82955 -7.24159,8.19966 -0.40169,-0.12883 -0.62495,-0.0739 -0.69425,0.17085 -0.0562,0.19841 -0.72745,2.98012 -1.49171,6.18158 -3.53441,14.80557 -4.97785,19.38331 -7.01565,22.24952 -1.04654,1.47198 -1.13877,2.28284 -0.48086,4.22782 0.67674,2.00068 1.48861,3.01539 3.79268,4.74026 1.16394,0.87135 2.11626,1.74063 2.11626,1.93173 0,0.44504 -1.5918,1.11421 -2.65047,1.11421 -1.21178,0 -2.11582,-0.57923 -3.366,-2.15662 -0.61693,-0.77839 -1.23206,-1.54841 -1.36696,-1.71115 -0.42296,-0.51026 -1.52855,-2.8453 -1.7166,-3.62551 -0.10155,-0.42131 -0.3197,-0.69685 -0.50087,-0.63263 -0.97304,0.34489 0.67515,4.75955 2.83946,7.60542 0.66285,0.8716 1.20519,1.64293 1.20519,1.71407 0,0.0711 -0.32955,0.12933 -0.73233,0.12933 -1.43245,0 -4.48244,-2.55501 -6.63264,-5.55625 -1.71973,-2.40039 -1.9501,-2.64583 -2.48341,-2.64583 -0.5666,0 -0.56266,-0.14275 -0.0443,1.60562 0.5816,1.9617 1.25278,3.21462 2.81141,5.24817 2.19015,2.85749 2.31321,3.71554 0.45873,3.19844 -2.40709,-0.6712 -5.18323,-3.84797 -7.34055,-8.39988 -0.53416,-1.12707 -1.40062,-2.7636 -1.92546,-3.63672 -1.25151,-2.08199 -2.75814,-5.64104 -3.4871,-8.23747 -0.51032,-1.81763 -0.58371,-2.71811 -0.57939,-7.10837 0.006,-5.90697 0.37047,-8.33369 2.14687,-14.2875 2.98905,-10.01811 3.3384,-11.52834 2.75081,-11.891493 -0.46922,-0.289989 -0.96161,0.141256 -1.72404,1.509953 -2.26326,4.06293 -4.90361,7.56022 -8.60803,11.40182 -2.64539,2.74337 -4.58098,4.29232 -7.45733,5.96773 l -2.08434,1.21408 -0.10152,17.12287 -0.10151,17.12288 1.15394,0.67625 c 2.31795,1.35841 3.25696,3.36951 3.47989,7.45294 l 0.14672,2.68745 1.22003,0.17794 c 4.71972,0.68837 12.57488,5.00145 17.05542,9.36472 2.59938,2.53135 5.68257,6.45832 7.19749,9.16724 1.54213,2.75759 3.24147,7.18921 4.02024,10.48417 0.63343,2.68003 0.70906,3.51246 0.70543,7.76437 -0.005,5.57498 -0.32441,7.84301 -1.69629,12.03604 -2.05869,6.29224 -4.91798,11.05206 -9.22023,15.34877 -8.02022,8.00992 -19.27845,11.82671 -31.19104,10.57447 z m 2.76536,-18.84876 -0.0543,-10.39052 -0.86715,-0.42658 -0.86716,-0.42658 -3.36806,3.44138 c -1.85243,1.89277 -4.65983,4.70663 -6.238659,6.25304 -1.578828,1.54641 -3.23086,3.26434 -3.67118,3.81763 l -0.800583,1.00599 0.628472,0.67257 c 1.155911,1.23703 5.180872,3.72928 7.414542,4.59107 1.921908,0.74152 6.067678,1.76338 7.425278,1.83021 0.42119,0.0207 0.4492,-0.70757 0.39876,-10.36821 z m 8.73798,9.59131 c 2.38056,-0.46804 5.1948,-1.56396 7.34358,-2.85973 1.38842,-0.83726 4.63021,-3.27859 4.63021,-3.48693 0,-0.0896 -3.17326,-3.35544 -7.05169,-7.25735 l -7.05169,-7.09439 -1.15039,0.55891 -1.1504,0.5589 v 10.17326 10.17327 l 0.99219,-0.14252 c 0.5457,-0.0784 2.09289,-0.35892 3.43819,-0.62342 z m -14.19399,-22.8014 c 0.482,-0.33281 0.47451,-0.39323 -0.22677,-1.82879 -0.68422,-1.40064 -0.79093,-1.49417 -1.88665,-1.65365 -0.638776,-0.093 -5.030765,-0.16904 -9.759977,-0.16904 h -8.598567 l 0.180843,1.78594 c 0.497142,4.90957 2.702061,10.22442 6.140496,14.80138 l 0.634511,0.84461 6.508823,-6.71813 c 3.579853,-3.69497 6.733131,-6.87302 7.007291,-7.06232 z m 31.10678,10.8312 c 2.51132,-3.76169 4.32701,-8.63186 4.73359,-12.69674 l 0.17863,-1.78594 h -9.80257 -9.80258 l -0.18483,0.59532 c -0.10166,0.32742 -0.41103,0.91653 -0.68749,1.30913 l -0.50265,0.71381 4.00712,4.04465 c 2.20392,2.22456 5.31638,5.4962 6.91658,7.27032 1.60021,1.77411 3.04514,3.17344 3.21097,3.10962 0.16584,-0.0638 1.03579,-1.21589 1.93323,-2.56017 z m -21.66076,-12.47316 c 1.73942,-0.90502 2.65804,-2.8417 2.18361,-4.60359 -0.60384,-2.2425 -2.18834,-3.37675 -4.39851,-3.14865 -1.89719,0.19581 -2.82655,0.7471 -3.54614,2.10354 -0.75009,1.41393 -0.61137,2.56126 0.49419,4.08744 1.2724,1.75651 3.57801,2.43996 5.26685,1.56126 z M 76.277177,194.07187 c 0.787323,-2.61937 1.813471,-5.65474 2.280328,-6.74525 2.191142,-5.1182 8.238033,-12.08082 13.422199,-15.45482 2.481559,-1.61507 6.546469,-3.53188 8.429676,-3.97503 1.73508,-0.40828 2.4046,-1.28041 1.60035,-2.08466 -0.47796,-0.47796 -1.81641,-0.25986 -4.643063,0.75659 -6.485572,2.33219 -12.696921,7.33815 -17.635275,14.21295 -0.950794,1.32362 -2.633684,4.58855 -3.633773,7.04978 -0.760738,1.87219 -2.016211,7.60498 -2.010671,9.18121 0.0046,1.31786 0.271395,2.31472 0.545282,2.03765 0.117397,-0.11875 0.857623,-2.35904 1.644947,-4.97842 z m 25.343333,3.59189 c 0.26553,-0.59309 0.60767,-1.07835 0.7603,-1.07835 0.59323,0 0.2058,-0.53943 -1.64071,-2.28444 -1.055022,-0.99703 -4.159617,-4.0163 -6.899096,-6.70948 l -4.98087,-4.8967 -0.796516,0.92604 c -3.222275,3.74627 -5.272577,8.4569 -6.168826,14.17307 l -0.168738,1.0762 9.705832,-0.064 9.705834,-0.064 z m 36.31015,-0.02 c -0.3216,-2.49309 -1.42273,-6.1919 -2.54233,-8.54005 -1.02996,-2.16013 -3.89019,-6.27662 -4.36113,-6.27662 -0.0967,0 -2.85815,2.65862 -6.13645,5.90804 -3.2783,3.24942 -6.35898,6.20822 -6.84595,6.57511 l -0.88541,0.66708 0.55468,1.08726 c 0.30507,0.598 0.55488,1.24083 0.55513,1.42853 3.7e-4,0.27256 1.99534,0.34127 9.90775,0.34127 h 9.9073 z m -26.42035,-4.56407 c 0.0573,-0.1819 0.17183,-7.78543 0.25458,-16.89673 l 0.15045,-16.566 -0.60179,-0.893 c -0.84181,-1.24916 -1.82952,-1.55642 -2.76877,-0.86131 -1.45976,1.08031 -1.42481,0.5454 -1.22419,18.73854 l 0.18537,16.80923 h 1.95011 c 1.32818,0 1.98333,-0.10547 2.05424,-0.33073 z m 10.25172,-6.74532 c 3.46297,-3.45526 6.2963,-6.40955 6.2963,-6.56508 0,-0.68895 -3.33663,-3.09862 -6.48273,-4.68174 -1.98157,-0.99712 -4.33902,-1.78546 -5.33925,-1.78546 h -0.61343 l -0.0237,6.54844 c -0.013,3.60164 -0.10232,7.94754 -0.19844,9.65755 -0.0961,1.71002 -0.12082,3.109 -0.0549,3.10886 0.0659,-1.5e-4 2.95318,-2.8273 6.41614,-6.28257 z m -18.17222,-3.83801 c -0.10662,-4.98409 -0.21659,-9.08742 -0.24438,-9.11852 -0.1878,-0.21016 -3.822259,1.17723 -5.518448,2.10658 -2.230936,1.22233 -5.998768,3.8958 -6.009746,4.26422 -0.0092,0.30937 11.400274,11.8097 11.716414,11.8097 0.15587,0 0.17702,-3.41242 0.0562,-9.06198 z m 23.34091,-13.35206 c 0.14073,-0.42218 -3.42264,-2.28009 -5.98076,-3.11832 -1.82426,-0.59777 -2.25513,-0.66155 -2.44979,-0.36263 -0.43691,0.67088 -0.14171,1.63274 0.56233,1.83227 0.3638,0.1031 1.91161,0.55068 3.43958,0.99461 4.06706,1.18165 4.24407,1.20779 4.42864,0.65407 z m 13.10454,-32.08893 c 0.36917,-0.29039 1.05156,-1.20191 1.51642,-2.0256 l 0.84521,-1.49763 0.40439,0.83498 c 0.45319,0.93573 0.80516,1.06092 1.04579,0.37195 0.089,-0.25466 0.84984,-2.21 1.69087,-4.3452 1.58148,-4.01504 3.54362,-10.89444 4.50501,-15.79493 0.30347,-1.54686 1.24612,-5.66997 2.09477,-9.16247 0.84866,-3.4925 1.61184,-6.766718 1.69596,-7.276041 l 0.15294,-0.926042 -7.34175,-0.05843 c -4.03796,-0.03214 -7.818,0.02858 -8.40008,0.13493 -1.04099,0.190192 -1.06413,0.219333 -1.41182,1.778222 -0.19442,0.871675 -0.63899,2.443581 -0.98793,3.493121 -0.96741,2.9097 -3.53947,13.64804 -3.94738,16.48028 -0.68158,4.73246 -0.74384,7.08467 -0.2627,9.92466 0.74095,4.37348 2.00078,7.81406 2.85452,7.7956 0.17365,-0.004 0.53389,-0.48001 0.80054,-1.05834 0.26664,-0.57832 0.62383,-1.05105 0.79375,-1.05049 0.16991,5.5e-4 0.81433,0.65539 1.43203,1.4552 0.6177,0.79981 1.28625,1.4542 1.48567,1.4542 0.19942,0 0.66463,-0.23758 1.03379,-0.52797 z M 104.57031,116.7818 c 6.00388,-1.48324 10.59409,-4.41357 15.26133,-9.74261 3.29523,-3.76249 3.92811,-4.59469 5.4443,-7.158969 2.29607,-3.88326 3.31353,-6.183717 4.01162,-9.070195 0.61993,-2.563325 0.67432,-3.204989 0.56559,-6.672513 -0.0662,-2.110052 -0.0704,-3.985286 -0.009,-4.167187 0.061,-0.181901 0.50705,-0.330729 0.99131,-0.330729 1.39803,0 2.48641,1.500572 3.16643,4.365624 l 0.31399,1.322917 9.37302,0.136024 c 5.15517,0.07481 9.4676,0.09429 9.58318,0.04329 0.24414,-0.107732 -1.03426,-2.497986 -2.85389,-5.335987 -1.64586,-2.566963 -3.85721,-4.857362 -7.14585,-7.401267 -3.28807,-2.54347 -3.62125,-2.719951 -4.73912,-2.510238 -0.63362,0.118868 -1.27043,4.77e-4 -2.1791,-0.405125 -1.72534,-0.770138 -4.87268,-1.312135 -8.5599,-1.474083 -1.67349,-0.0735 -3.59506,-0.182534 -4.27017,-0.242293 l -1.22745,-0.108652 0.13788,2.701647 c 0.0809,1.585249 0.0131,3.28329 -0.16398,4.109203 -0.48337,2.253868 -1.85717,5.255742 -3.55578,7.76968 -1.06734,1.579667 -1.85908,3.154686 -2.44998,4.873793 -1.06229,3.090544 -2.6659,5.786872 -5.35649,9.006473 -2.55039,3.051842 -4.44136,4.700797 -9.44007,8.231877 -5.754225,4.06477 -8.98359,7.46422 -9.514633,10.01574 -0.311767,1.49795 1.125995,2.29917 4.884423,2.72194 2.39412,0.2693 4.72427,0.0649 7.73281,-0.67836 z m 55.08011,-12.30784 c 0.64362,-0.29325 1.21624,-1.4098 1.21624,-2.37153 0,-0.55169 -1.75808,-2.354501 -2.29609,-2.354501 -0.48092,0 -0.77175,0.829751 -1.00817,2.876441 -0.1501,1.29933 -0.11211,1.73816 0.1657,1.91417 0.49538,0.31387 1.13919,0.29224 1.92232,-0.0646 z m -61.530645,-2.26114 c 2.670585,-1.80272 5.474165,-4.402553 5.209455,-4.830869 -0.13309,-0.215344 -1.6402,-0.29189 -5.12606,-0.260352 -2.715649,0.02457 -7.110435,-0.04574 -9.76619,-0.156242 -4.054403,-0.168699 -4.828646,-0.14162 -4.828646,0.168879 0,0.203385 1.041797,1.390209 2.315104,2.637384 2.318328,2.27075 4.387502,3.54469 7.077604,4.35751 1.340768,0.40511 2.101766,0.12021 5.118733,-1.91631 z M 198.23906,92.097906 c 2.31011,-0.396353 2.45913,-0.615571 1.30016,-1.91268 -0.59396,-0.664759 -1.04891,-0.882184 -2.18281,-1.043192 -1.79793,-0.255296 -36.64207,-0.300657 -51.50364,-0.06705 l -11.13193,0.174982 -0.15625,0.883352 c -0.0859,0.485843 -0.22538,1.270304 -0.30985,1.743247 l -0.1536,0.859896 31.0437,-0.143371 c 24.08497,-0.111233 31.50334,-0.222233 33.09422,-0.495184 z M 92.449318,92.303088 c -0.06369,-0.103055 -0.50139,-0.271084 -0.972664,-0.373398 -0.471274,-0.102314 -2.047487,-0.796083 -3.502695,-1.54171 l -2.645833,-1.355686 -10.31875,-0.07548 c -5.675312,-0.04152 -10.961624,0.01801 -11.747361,0.132292 -1.326868,0.192978 -1.451369,0.273727 -1.748141,1.133817 -0.722495,2.093894 -0.721632,2.068835 -0.0759,2.201799 0.981575,0.20212 31.138336,0.08384 31.011347,-0.12163 z M 109.22,91.757503 c 0.17462,-0.174625 0.3175,-0.474701 0.3175,-0.666836 0,-0.257628 -0.27784,-0.207595 -1.05833,0.190586 -0.58209,0.296956 -1.05834,0.597032 -1.05834,0.666835 0,0.269233 1.49804,0.110546 1.79917,-0.190585 z M 45.791607,87.907815 c 0.325049,-0.982265 1.041909,-2.91032 1.593022,-4.284567 0.551114,-1.374246 0.950841,-2.581447 0.888283,-2.682668 -0.06256,-0.101222 -0.428797,-0.263113 -0.813863,-0.359758 -0.385065,-0.09665 -1.09222,-0.474789 -1.571454,-0.840319 -1.032686,-0.787667 -0.927947,-0.911437 -2.217893,2.620872 -0.466963,1.278703 -1.135835,2.826515 -1.486382,3.439583 -0.350548,0.613069 -0.638794,1.256516 -0.640546,1.429883 -0.0018,0.173368 0.711188,0.695972 1.584312,1.161343 0.873125,0.46537 1.5875,0.948602 1.5875,1.073849 0,0.125246 0.109356,0.22772 0.243012,0.22772 0.133657,0 0.508961,-0.803672 0.834009,-1.785938 z m 58.189643,0.03719 c 4.08032,-0.847028 7.90675,-3.313996 10.89899,-7.026781 1.23074,-1.527113 2.95912,-4.738797 3.26801,-6.072623 0.20176,-0.871262 -0.14984,-0.962713 -4.50971,-1.172967 -3.82345,-0.184385 -5.45994,-0.500663 -6.92596,-1.338551 -2.35819,-1.347799 -2.86222,-3.150251 -1.38282,-4.94502 1.41949,-1.722093 2.60777,-2.17267 5.66295,-2.147302 2.28303,0.01896 2.86228,0.120196 4.22434,0.738321 0.86818,0.393993 1.8111,0.919888 2.09538,1.168655 0.49002,0.428798 0.50769,0.427157 0.34003,-0.03157 -0.38492,-1.053128 -2.14927,-3.415266 -3.18473,-4.263745 -2.05306,-1.682326 -3.75687,-2.353559 -6.29008,-2.478034 -3.06347,-0.150531 -4.5272,0.341748 -6.5238,2.194062 -0.82998,0.770002 -1.925777,2.131264 -2.4351,3.025027 -0.626224,1.098902 -1.054534,1.58534 -1.322916,1.502454 -0.218282,-0.06741 -0.873125,-0.303762 -1.455209,-0.52522 -2.437693,-0.927441 -6.342571,-0.344151 -8.448292,1.26196 -1.855877,1.415547 -3.61832,4.832722 -4.123494,7.994981 -0.435229,2.72443 0.437103,7.77634 0.945458,5.475396 0.514418,-2.328388 1.020512,-3.620689 1.981559,-5.059868 1.975752,-2.958712 4.478784,-4.406971 7.305507,-4.226979 1.282811,0.08168 1.826275,0.244926 2.26028,0.678931 0.545471,0.545471 0.55641,0.652903 0.241155,2.368357 -0.520019,2.829684 -1.096561,3.794817 -4.242961,7.102738 -1.611868,1.694614 -2.93067,3.285501 -2.93067,3.535306 0,0.867179 3.413726,2.259834 6.476088,2.641968 2.015174,0.251462 5.855245,0.06151 8.075995,-0.399496 z M 99.032626,84.67074 c -1.776551,-0.378355 -3.253459,-1.305362 -3.253459,-2.04209 0,-0.470461 1.279431,-1.666151 1.78284,-1.666151 0.210459,0 0.68538,0.238125 1.05538,0.529167 2.255613,1.774268 9.597193,-1.072564 9.597193,-3.721488 0,-0.912266 1.09669,-1.942224 1.8227,-1.711796 0.29964,0.0951 0.80084,0.532483 1.11377,0.971956 0.66441,0.933074 0.53716,1.374229 -1.00069,3.469197 -0.9868,1.344288 -2.3984,2.433951 -4.55869,3.519004 -1.4882,0.747478 -4.64008,1.060887 -6.559044,0.652201 z m 0.53374,-5.811738 c -1.516489,-0.924669 -1.83652,-2.483369 -0.864493,-4.210478 0.901287,-1.601418 2.190317,-2.284983 4.308897,-2.284983 1.70718,0 1.85054,0.04802 2.57968,0.86407 0.52132,0.583454 0.77205,1.146634 0.77205,1.734137 0,1.11473 -1.30527,3.190634 -2.44193,3.883658 -1.14724,0.699478 -3.21873,0.705947 -4.354204,0.0136 z m 1.351584,-4.126379 c 0.24123,-0.961117 -0.062,-1.305498 -0.66713,-0.75781 -0.657767,0.595267 -0.659178,1.431436 -0.002,1.431436 0.3156,0 0.56294,-0.248843 0.66955,-0.673626 z m -61.528046,9.916045 c 0.668743,-1.275773 2.4722,-6.018108 2.753964,-7.241769 0.05397,-0.234391 -2.324102,-2.003963 -2.684704,-1.997742 -0.141298,0.0024 -3.216337,7.390261 -3.652133,8.774299 -0.09572,0.303988 0.212857,0.698031 0.984174,1.256771 0.617986,0.447666 1.26615,0.813939 1.440365,0.813939 0.174215,0 0.695465,-0.722474 1.158334,-1.605498 z M 33.798496,80.891281 C 35.394947,77.30694 36.61207,73.809188 36.3465,73.568863 36.219521,73.453954 35.563809,73.043184 34.889364,72.656041 l -1.226265,-0.703898 -0.174752,0.696266 c -0.09611,0.382946 -0.884307,2.362016 -1.751542,4.397933 -2.137872,5.018858 -2.104113,4.700903 -0.59058,5.56222 0.69588,0.39601 1.331547,0.723432 1.412593,0.727605 0.08105,0.0042 0.638901,-1.096027 1.239678,-2.444886 z m -5.78317,-3.353568 c 0.448682,-0.954021 1.301344,-2.865678 1.894806,-4.248126 0.593462,-1.382448 1.139761,-2.651613 1.213998,-2.820368 0.07424,-0.168754 -0.102757,-0.38228 -0.39332,-0.474501 -0.290564,-0.09222 -0.979794,-0.474069 -1.531622,-0.84855 l -1.003325,-0.680874 -0.405742,0.605835 c -0.458934,0.685258 -4.085867,8.336165 -4.357511,9.192038 -0.151348,0.476856 0.04485,0.668869 1.358267,1.329296 l 1.535169,0.77193 0.436748,-0.546047 c 0.240212,-0.300326 0.803851,-1.326611 1.252532,-2.280633 z m 64.053556,0.915111 c 1.122246,-0.708443 1.593618,-1.369654 1.593618,-2.235426 0,-0.838828 -0.635068,-0.662746 -2.370902,0.657367 -1.943681,1.478182 -2.054779,1.647455 -1.284116,1.956539 0.878597,0.352372 0.913934,0.345884 2.0614,-0.37848 z m -70.61038,-4.948146 c 0.826341,-1.534599 1.982968,-3.545964 2.570283,-4.4697 1.099317,-1.729018 1.157532,-2.095391 0.332952,-2.095391 -1.413857,0 -4.660717,4.330435 -5.144232,6.861018 -0.215391,1.127293 0.06094,2.720128 0.449427,2.590631 0.159023,-0.05301 0.965229,-1.351959 1.79157,-2.886558 z m 89.978698,-2.96609 c 2.59153,-0.542219 2.99618,-0.935018 1.5004,-1.456451 -2.44161,-0.851152 -5.17309,0.211957 -3.87635,1.5087 0.39022,0.390223 0.246,0.393395 2.37595,-0.05225 z M 91.88777,62.13569 c 0.757997,-0.405668 0.380065,-0.878279 -0.759375,-0.94961 -1.205907,-0.07549 -2.114716,0.480708 -1.86191,1.139509 0.13415,0.349591 0.367904,0.401057 1.152793,0.253811 0.541488,-0.101584 1.202309,-0.301253 1.468492,-0.44371 z m 10.31808,-3.969119 c 0.61267,-0.314013 0.97401,-0.618626 0.80298,-0.676918 -0.30774,-0.104886 -2.46716,0.876232 -2.46716,1.120937 0,0.264397 0.5882,0.107459 1.66418,-0.444019 z M 79.999064,57.280253 c -0.189031,-0.492608 0.12052,-0.968583 3.118614,-4.79527 1.314089,-1.677268 2.323856,-3.114973 2.243928,-3.194901 -0.07993,-0.07993 -0.834533,-0.219377 -1.676902,-0.309888 -1.488795,-0.159967 -1.531578,-0.186737 -1.531578,-0.958314 v -0.79375 l 2.248958,-0.0831 c 1.236927,-0.04571 2.874037,-0.0074 3.638021,0.08518 1.383131,0.167567 1.389062,0.172295 1.389062,1.107223 0,0.793227 -0.370685,1.386491 -2.388634,3.82289 -1.49226,1.801703 -2.261752,2.928362 -2.050521,3.002294 0.185963,0.06509 0.873895,0.151923 1.528739,0.192967 0.985418,0.06176 1.204507,0.171967 1.271172,0.639407 0.05159,0.361759 -0.175231,0.765975 -0.630994,1.124479 -0.633914,0.498637 -1.054938,0.559698 -3.859163,0.559698 -2.560974,0 -3.176153,-0.07435 -3.300702,-0.398918 z m -8.296979,-6.657824 c -1.76469,-0.177013 -5.427978,-0.636117 -6.283854,-0.787527 -1.647075,-0.291379 -1.074397,-1.52426 2.563909,-5.519671 1.058871,-1.162801 2.51273,-2.682845 3.230796,-3.377875 0.718066,-0.69503 1.24314,-1.364713 1.16683,-1.488186 -0.07631,-0.123472 -0.799977,-0.279329 -1.608149,-0.346349 -1.615564,-0.133975 -2.086484,-0.417325 -1.825203,-1.098214 0.317094,-0.826332 0.988292,-0.943569 3.83638,-0.670093 3.974541,0.381639 3.946374,0.372197 3.946374,1.322798 0,0.678199 -0.496649,1.319668 -3.017638,3.897563 -3.526638,3.606244 -4.438949,4.669098 -4.206928,4.901119 0.09296,0.09296 1.01237,0.170834 2.043143,0.173062 1.030772,0.0022 2.012332,0.09198 2.181243,0.199457 0.638826,0.406462 -0.262798,3.129382 -0.96857,2.925097 -0.07276,-0.02106 -0.54901,-0.08009 -1.058333,-0.131181 z M 61.647919,42.983925 c -0.945886,-0.207819 -2.34487,-0.507191 -3.108854,-0.66527 -1.089384,-0.225409 -1.389063,-0.396228 -1.389063,-0.791777 0,-0.55982 3.950165,-4.065933 6.178752,-5.484176 1.573359,-1.001265 1.812556,-1.38228 0.867778,-1.38228 -0.368766,0 -1.271657,-0.128928 -2.006423,-0.286508 -1.161314,-0.249057 -1.33594,-0.370845 -1.33594,-0.931713 0,-1.099304 0.828631,-1.232117 4.187157,-0.67112 1.648093,0.275292 3.121703,0.625702 3.274691,0.778689 0.722018,0.722018 -0.0764,1.618357 -3.736599,4.194873 -2.02526,1.425637 -3.637735,2.664161 -3.583278,2.752274 0.05446,0.08811 1.107864,0.310299 2.340902,0.493745 2.376246,0.353527 2.699999,0.59591 2.184548,1.6355 -0.391134,0.78886 -1.461572,0.887723 -3.873671,0.357763 z m -9.392708,-5.038437 c -1.455208,-0.339554 -2.913724,-0.68409 -3.241146,-0.765634 -0.414364,-0.103198 -0.595312,-0.344652 -0.595312,-0.794374 0,-0.806769 0.661018,-1.432783 3.164959,-2.997361 l 1.974334,-1.233655 -1.368996,-0.268375 c -1.740635,-0.34123 -2.264268,-0.807729 -1.521688,-1.355654 0.422661,-0.311868 1.033462,-0.354476 3.042708,-0.212253 2.898735,0.205186 3.439932,0.410086 3.439932,1.302377 0,0.528019 -0.373672,0.859568 -2.05052,1.819365 -1.127787,0.645524 -2.345359,1.408304 -2.705715,1.695066 l -0.655195,0.521386 1.581236,0.302843 c 2.884496,0.552448 3.163103,0.664079 3.255192,1.304284 0.110946,0.771296 -0.392292,1.374848 -1.11104,1.332512 -0.309604,-0.01824 -1.753541,-0.310973 -3.208749,-0.650527 z"
       id="path34" /></g></svg>
