<?xml version="1.0" encoding="UTF-8" standalone="no"?>
<!-- Created with Inkscape (http://www.inkscape.org/) -->

<svg
   width="189.94118mm"
   height="208.63905mm"
   viewBox="0 0 189.94118 208.63905"
   version="1.1"
   id="svg1"
   xml:space="preserve"
   sodipodi:docname="FAUltiere3.svg"
   inkscape:version="1.4.2 (ebf0e940d0, 2025-05-08)"
   inkscape:export-filename="FAUltiere3.webp"
   inkscape:export-xdpi="96"
   inkscape:export-ydpi="96"
   xmlns:inkscape="http://www.inkscape.org/namespaces/inkscape"
   xmlns:sodipodi="http://sodipodi.sourceforge.net/DTD/sodipodi-0.dtd"
   xmlns="http://www.w3.org/2000/svg"
   xmlns:svg="http://www.w3.org/2000/svg"><sodipodi:namedview
     id="namedview1"
     pagecolor="#ffffff"
     bordercolor="#000000"
     borderopacity="0.25"
     inkscape:showpageshadow="2"
     inkscape:pageopacity="0.0"
     inkscape:pagecheckerboard="0"
     inkscape:deskcolor="#d1d1d1"
     inkscape:document-units="mm"
     inkscape:zoom="1.0634977"
     inkscape:cx="217.2078"
     inkscape:cy="340.38624"
     inkscape:window-width="2560"
     inkscape:window-height="1388"
     inkscape:window-x="2560"
     inkscape:window-y="52"
     inkscape:window-maximized="1"
     inkscape:current-layer="layer1" /><defs
     id="defs1" /><g
     id="layer1"
     transform="translate(-14.790851,-30.240375)"><rect
       style="opacity:0.5571;fill:#654874;fill-opacity:1;stroke:none;stroke-width:0.264999;stroke-opacity:1"
       id="rect1"
       width="256.24957"
       height="238.08818"
       x="-11.580463"
       y="16.308359" /><path
       style="fill:#ffffff;fill-opacity:1;stroke:#ffffff;stroke-width:0.77068;stroke-opacity:1"
       d="m 105.97258,214.77668 c -2.1393,-0.22489 -3.29131,-0.53073 -6.375732,-1.69267 -6.088657,-2.29369 -11.686313,-7.30649 -14.952345,-13.39011 -3.268171,-6.08761 -4.32791,-12.94724 -2.992661,-19.37136 1.03677,-4.98808 2.273537,-8.10956 4.564036,-11.51917 3.49495,-5.20256 10.585581,-10.10208 16.535592,-11.42583 l 1.47499,-0.32815 0.1275,-2.08363 c 0.0701,-1.14599 0.23587,-2.40148 0.36834,-2.78998 0.38682,-1.13441 1.37988,-2.43677 2.13128,-2.79509 l 0.69572,-0.33177 v -12.60459 c 0,-6.93253 -0.0688,-12.60342 -0.15293,-12.60199 -0.0841,0.002 -0.84113,0.22069 -1.68225,0.48723 -0.84113,0.26655 -1.98932,0.54627 -2.55155,0.62162 -0.9647,0.12928 -1.04217,0.18518 -1.37639,0.99325 -0.76461,1.84866 -0.20101,5.16085 1.17209,6.88819 0.832,1.04666 0.85203,1.13215 0.30574,1.30553 -1.26195,0.40053 -3.054,-1.2153 -3.876009,-3.49485 -0.405938,-1.12573 -0.50677,-1.79944 -0.514714,-3.43907 -0.0055,-1.1215 -0.07655,-2.02303 -0.15803,-2.00341 -0.484015,0.11659 -0.587286,0.26201 -0.772989,1.08852 -0.219191,0.97554 -0.138303,2.00376 0.358208,4.55335 0.344626,1.76967 0.253558,2.58423 -0.287808,2.57428 -0.614011,-0.0112 -1.047488,-0.50691 -1.708084,-1.95298 -0.775772,-1.6982 -0.974524,-3.70882 -0.57561,-5.82298 0.256494,-1.35937 0.249719,-1.43188 -0.173332,-1.85493 -0.272569,-0.27257 -0.507329,-0.36562 -0.616341,-0.24428 -0.394117,0.43866 -0.897212,3.74897 -0.949915,6.25035 -0.03052,1.44827 -0.09997,2.67771 -0.15434,2.73208 -0.257908,0.25791 -1.178941,-0.45461 -1.443332,-1.11658 -0.818821,-2.05011 -0.949378,-6.4569 -0.248336,-8.38228 0.183499,-0.50397 0.47297,-1.60508 0.643267,-2.44691 0.381411,-1.88541 1.205032,-3.70745 2.304826,-5.0988 0.459258,-0.581 0.835014,-1.1216 0.835014,-1.20133 0,-0.0797 -0.435855,-0.35358 -0.968568,-0.60854 -1.67726,-0.80278 -3.783954,-2.10888 -4.883258,-3.02751 -2.156525,-1.80211 -3.406364,-3.21329 -3.186655,-3.59803 0.07253,-0.12701 0.05547,-0.16159 -0.0379,-0.0769 -0.09337,0.0847 -0.424619,-0.23088 -0.736101,-0.70138 l -0.566332,-0.85545 -6.076566,0.0412 c -3.342111,0.0226 -7.186892,0.0976 -8.543958,0.16651 -2.781648,0.14131 -2.964946,0.10193 -6.096787,-1.31 -2.557198,-1.15286 -4.919472,-2.18714 -8.564178,-3.74968 -1.570099,-0.673123 -5.959596,-2.791634 -9.754436,-4.707803 -7.546681,-3.810624 -8.132395,-4.21523 -9.201311,-6.356167 -0.785613,-1.57351 -0.98463,-4.449082 -0.414276,-5.985801 0.78053,-2.102994 2.818678,-3.482779 5.406599,-3.66016 1.997383,-0.136903 2.955556,0.173001 5.618355,1.817158 1.113139,0.687314 3.492035,2.13801 5.286434,3.223768 1.794399,1.085759 4.363653,2.711608 5.709453,3.612998 3.162381,2.1181 10.049725,6.352868 11.622814,7.146431 2.495876,1.259072 2.840397,1.303926 9.889588,1.287528 3.532723,-0.0082 6.712526,-0.06888 7.066227,-0.13482 l 0.643093,-0.11988 -0.643093,-1.357372 c -0.614967,-1.298005 -0.642336,-1.46439 -0.625773,-3.80428 0.01348,-1.904399 0.109001,-2.706471 0.430827,-3.61763 0.435238,-1.232256 0.373278,-1.456106 -0.448147,-1.619076 -0.308058,-0.06112 -0.397278,-0.224517 -0.364732,-0.667976 0.05544,-0.755271 0.863246,-1.750304 2.625814,-3.23437 0.775105,-0.65263 1.439867,-1.272003 1.47725,-1.376386 0.03739,-0.104382 -0.301298,-0.189785 -0.752625,-0.189785 -0.451327,0 -0.870549,-0.08083 -0.931605,-0.179619 -0.132652,-0.214636 0.82026,-1.450688 1.759034,-2.281697 0.62023,-0.549032 2.496417,-1.411425 3.076443,-1.414093 0.588545,-0.0027 1.776616,-0.445524 1.667786,-0.621616 -0.06556,-0.106085 -0.0189,-0.192883 0.10371,-0.192883 0.239487,0 0.199109,-0.754231 -0.06273,-1.171861 -0.122076,-0.194704 -0.04173,-0.209523 0.34298,-0.06326 0.444399,0.16896 0.51798,0.127691 0.63733,-0.357457 0.41872,-1.702074 1.683359,-2.843179 2.724243,-2.458131 0.394187,0.14582 0.452443,0.27378 0.345764,0.759488 -0.115367,0.525263 0.224938,2.475581 0.431956,2.475581 0.04619,0 0.347356,-0.298217 0.669266,-0.662704 0.83166,-0.941668 2.55256,-1.918247 4.05685,-2.302181 1.53597,-0.392017 1.93075,-0.302881 1.75527,0.396309 -0.1171,0.466525 -0.061,0.507529 0.86161,0.62979 1.59414,0.211253 4.55395,1.096989 5.63879,1.687433 1.58552,0.862949 4.42776,3.680794 5.34221,5.296343 0.0153,0.02707 1.76442,0.08464 3.88689,0.127939 4.71743,0.09623 7.26921,0.552707 10.54692,1.886695 2.69996,1.098851 4.6641,2.213594 6.48705,3.681721 2.81496,2.267039 6.21537,6.703029 7.16648,9.349017 l 0.51117,1.42204 6.49815,0.125266 c 3.57399,0.0689 10.85672,0.138226 16.18385,0.154068 6.06887,0.01805 9.97458,0.109032 10.45935,0.243652 1.09357,0.303677 2.49443,1.712574 2.78563,2.801593 0.71866,2.68766 -0.88538,4.80115 -3.90984,5.15161 -0.81656,0.0946 -8.04542,0.1838 -16.06414,0.19818 l -14.5795,0.0261 0.91759,0.41448 c 1.25221,0.56564 1.61009,0.9123 2.16795,2.10002 1.74497,3.71507 -1.66435,7.57543 -5.58095,6.31931 -0.30957,-0.0993 -0.48163,-0.057 -0.53504,0.13167 -0.0433,0.15291 -0.56063,2.29672 -1.14963,4.76402 -2.7239,11.41035 -3.83634,14.93833 -5.40683,17.14726 -0.80654,1.13442 -0.87763,1.75934 -0.37058,3.25829 0.52154,1.54189 1.14724,2.3239 2.92294,3.65322 0.89703,0.67154 1.63095,1.34147 1.63095,1.48875 0,0.34298 -1.22676,0.8587 -2.04266,0.8587 -0.9339,0 -1.63062,-0.4464 -2.59411,-1.66206 -0.47546,-0.59989 -0.94953,-1.19333 -1.05349,-1.31875 -0.32597,-0.39325 -1.17802,-2.19282 -1.32295,-2.79411 -0.0783,-0.3247 -0.24639,-0.53705 -0.38601,-0.48756 -0.7499,0.2658 0.52033,3.66809 2.18832,5.86135 0.51084,0.67172 0.92881,1.26617 0.92881,1.321 0,0.0548 -0.25398,0.0997 -0.56439,0.0997 -1.10396,0 -3.45453,-1.9691 -5.11164,-4.28209 -1.32535,-1.84993 -1.50291,-2.03909 -1.91391,-2.03909 -0.43666,0 -0.43363,-0.11001 -0.0341,1.23742 0.44823,1.51184 0.96548,2.47744 2.16669,4.04466 1.68791,2.20221 1.78274,2.86349 0.35354,2.46497 -1.85509,-0.51728 -3.99461,-2.96555 -5.65721,-6.47362 -0.41167,-0.86861 -1.07943,-2.12985 -1.48391,-2.80274 -0.96452,-1.60455 -2.12565,-4.34744 -2.68744,-6.34845 -0.39329,-1.40081 -0.44986,-2.0948 -0.44653,-5.47828 0.005,-4.55238 0.28552,-6.42261 1.65455,-11.01109 2.3036,-7.72075 2.57284,-8.88466 2.12,-9.16453 -0.36162,-0.22349 -0.7411,0.10886 -1.32869,1.16369 -1.74424,3.13122 -3.77911,5.82651 -6.63403,8.78715 -2.03875,2.11426 -3.53047,3.308 -5.74721,4.59921 l -1.60636,0.93567 -0.0782,13.19625 -0.0782,13.19625 0.88931,0.52118 c 1.7864,1.0469 2.51008,2.59681 2.68189,5.74383 l 0.11307,2.07116 0.94025,0.13714 c 3.63739,0.53051 9.69121,3.85451 13.14427,7.2172 2.00329,1.95086 4.37944,4.97729 5.54696,7.065 1.18849,2.12522 2.49814,5.54058 3.09832,8.07994 0.48817,2.06545 0.54646,2.70698 0.54366,5.98384 -0.004,4.29653 -0.25002,6.04445 -1.3073,9.27594 -1.58659,4.8493 -3.79019,8.5176 -7.10584,11.82898 -6.18102,6.17309 -14.85752,9.11461 -24.03831,8.14954 z m 2.13121,-14.52636 -0.0418,-8.00777 -0.66829,-0.32875 -0.6683,-0.32876 -2.5957,2.6522 c -1.42763,1.45872 -3.59124,3.62731 -4.808009,4.81909 -1.216771,1.19179 -2.489958,2.51576 -2.829304,2.94217 l -0.616993,0.7753 0.48435,0.51834 c 0.890838,0.95335 3.992796,2.87408 5.714236,3.53824 1.48118,0.57148 4.67624,1.359 5.72251,1.41051 0.32461,0.016 0.34619,-0.54531 0.30732,-7.99057 z m 6.73419,7.39183 c 1.83465,-0.36071 4.00352,-1.20532 5.65954,-2.20394 1.07003,-0.64526 3.56841,-2.52674 3.56841,-2.68731 0,-0.0691 -2.44556,-2.58597 -5.43459,-5.59309 l -5.4346,-5.4675 -0.88658,0.43074 -0.88659,0.43073 v 7.84033 7.84033 l 0.76466,-0.10984 c 0.42056,-0.0604 1.61295,-0.27661 2.64975,-0.48045 z m -10.93903,-17.57258 c 0.37147,-0.25649 0.3657,-0.30306 -0.17476,-1.40941 -0.52732,-1.07945 -0.60956,-1.15153 -1.45401,-1.27444 -0.49229,-0.0717 -3.877105,-0.13028 -7.521813,-0.13028 h -6.626742 l 0.139372,1.37639 c 0.383137,3.78371 2.082424,7.87976 4.732356,11.40713 l 0.489005,0.65092 5.016219,-5.17753 c 2.758923,-2.84763 5.189083,-5.29689 5.400373,-5.44278 z m 23.97337,8.34738 c 1.93543,-2.89905 3.33474,-6.6524 3.64808,-9.78512 l 0.13767,-1.37639 h -7.55464 -7.55465 l -0.14245,0.45881 c -0.0783,0.25233 -0.31677,0.70635 -0.52983,1.00892 l -0.38738,0.55011 3.0882,3.11713 c 1.69852,1.71443 4.09723,4.23582 5.33047,5.60309 1.23325,1.36727 2.34683,2.44571 2.47463,2.39653 0.12781,-0.0492 0.79826,-0.93707 1.4899,-1.97308 z m -16.69351,-9.61281 c 1.34054,-0.69748 2.0485,-2.19004 1.68287,-3.54789 -0.46537,-1.72825 -1.68651,-2.6024 -3.38985,-2.4266 -1.46212,0.1509 -2.17836,0.57577 -2.73294,1.62115 -0.57808,1.08969 -0.47117,1.97391 0.38087,3.15011 0.98061,1.35371 2.7575,1.88043 4.05905,1.20323 z m -27.223479,-8.37965 c 0.606774,-2.01869 1.397605,-4.35799 1.757402,-5.19842 1.688669,-3.9445 6.348886,-9.31045 10.344218,-11.91072 1.912488,-1.2447 5.045229,-2.72195 6.496579,-3.06348 1.33719,-0.31465 1.85318,-0.98678 1.23336,-1.6066 -0.36835,-0.36836 -1.39987,-0.20027 -3.57832,0.58309 -4.998294,1.79737 -9.785256,5.65536 -13.591146,10.95363 -0.732757,1.02009 -2.029727,3.5363 -2.800475,5.43312 -0.586285,1.44286 -1.553853,5.86101 -1.549584,7.07578 0.0035,1.01564 0.209159,1.7839 0.420238,1.57037 0.09048,-0.0915 0.660953,-1.81806 1.267728,-3.83677 z m 19.531599,2.7682 c 0.20463,-0.45708 0.46831,-0.83106 0.58594,-0.83106 0.45719,0 0.15861,-0.41573 -1.26446,-1.76057 -0.81308,-0.76839 -3.205731,-3.09529 -5.316992,-5.17086 l -3.838656,-3.77379 -0.613859,0.71368 c -2.483342,2.88717 -4.063469,6.51756 -4.75419,10.9229 l -0.130043,0.8294 7.480089,-0.0493 7.480091,-0.0493 z m 27.9835,-0.0154 c -0.24785,-1.92138 -1.09647,-4.77198 -1.95933,-6.58165 -0.79377,-1.66477 -2.99809,-4.83726 -3.36103,-4.83726 -0.0745,0 -2.20272,2.04894 -4.72924,4.55321 -2.52652,2.50426 -4.90074,4.78455 -5.27604,5.0673 l -0.68236,0.51411 0.42748,0.83792 c 0.23511,0.46087 0.42763,0.95629 0.42783,1.10094 2.8e-4,0.21006 1.53776,0.26301 7.6357,0.26301 h 7.63535 z m -20.36163,-3.51744 c 0.0442,-0.14019 0.13242,-6.00007 0.19619,-13.02197 l 0.11595,-12.76708 -0.46378,-0.68822 c -0.64877,-0.9627 -1.40998,-1.1995 -2.13384,-0.66379 -1.12501,0.83257 -1.09807,0.42033 -0.94346,14.44141 l 0.14286,12.95454 h 1.50291 c 1.02361,0 1.52852,-0.0813 1.58317,-0.25489 z m 7.90079,-5.19848 c 2.66884,-2.6629 4.85243,-4.93971 4.85243,-5.05958 0,-0.53096 -2.57147,-2.38804 -4.99611,-3.60812 -1.52715,-0.76846 -3.34399,-1.37602 -4.11485,-1.37602 h -0.47276 l -0.0183,5.04675 c -0.01,2.77571 -0.0789,6.12501 -0.15294,7.44288 -0.0741,1.31788 -0.0931,2.39605 -0.0423,2.39594 0.0508,-1.2e-4 2.27596,-2.17894 4.94479,-4.84185 z m -14.00496,-2.95788 c -0.0822,-3.84114 -0.16693,-7.00349 -0.18834,-7.02746 -0.14474,-0.16196 -2.94574,0.90727 -4.25296,1.6235 -1.719337,0.94203 -4.623129,3.00242 -4.631589,3.28635 -0.0071,0.23842 8.785959,9.1015 9.029599,9.1015 0.12013,0 0.13643,-2.62989 0.0433,-6.98389 z m 17.98836,-10.29016 c 0.10846,-0.32537 -2.63776,-1.75722 -4.60925,-2.40323 -1.40592,-0.46069 -1.73798,-0.50984 -1.888,-0.27947 -0.33672,0.51703 -0.10921,1.25832 0.43338,1.41209 0.28037,0.0795 1.47323,0.4244 2.65081,0.76653 3.1344,0.91067 3.27082,0.93082 3.41306,0.50408 z m 10.09941,-24.73029 c 0.28451,-0.2238 0.81041,-0.92629 1.16867,-1.56109 l 0.65139,-1.15419 0.31165,0.6435 c 0.34927,0.72115 0.62052,0.81763 0.80597,0.28665 0.0686,-0.19626 0.65496,-1.7032 1.30312,-3.34876 1.21882,-3.09431 2.731,-8.39612 3.47192,-12.17283 0.23388,-1.19213 0.96036,-4.36973 1.6144,-7.06133 0.65405,-2.6916 1.24221,-5.21497 1.30704,-5.6075 l 0.11787,-0.71368 -5.65814,-0.045 c -3.11197,-0.0248 -6.02517,0.022 -6.47377,0.10399 -0.80227,0.14657 -0.8201,0.16903 -1.08806,1.37044 -0.14984,0.67178 -0.49246,1.88321 -0.76138,2.69207 -0.74556,2.24245 -2.7278,10.51827 -3.04217,12.70102 -0.52528,3.64721 -0.57326,5.46002 -0.20245,7.64874 0.57103,3.37055 1.54196,6.02214 2.19992,6.00791 0.13383,-0.003 0.41146,-0.36993 0.61696,-0.81564 0.20549,-0.4457 0.48077,-0.81002 0.61172,-0.80959 0.13095,4.2e-4 0.62759,0.50509 1.10364,1.12149 0.47605,0.6164 0.99129,1.12072 1.14498,1.12072 0.15369,0 0.51221,-0.18309 0.79672,-0.40689 z M 105.76028,120.8586 c 4.62707,-1.14311 8.16465,-3.40145 11.7616,-7.50844 2.53956,-2.89967 3.02731,-3.54103 4.19581,-5.51727 1.76953,-2.99275 2.55367,-4.76567 3.09167,-6.99022 0.47777,-1.975499 0.51969,-2.470016 0.43589,-5.142367 -0.051,-1.626174 -0.0542,-3.071379 -0.007,-3.211567 0.047,-0.140187 0.39077,-0.254886 0.76398,-0.254886 1.07743,0 1.91622,1.156461 2.4403,3.364498 l 0.24199,1.019546 7.2236,0.104831 c 3.97298,0.05765 7.29648,0.07267 7.38556,0.03336 0.18815,-0.08303 -0.79708,-1.925147 -2.19944,-4.112337 -1.26843,-1.978307 -2.97267,-3.743471 -5.50716,-5.704007 -2.53405,-1.960201 -2.79082,-2.096212 -3.65234,-1.93459 -0.48832,0.09161 -0.9791,3.68e-4 -1.67939,-0.312222 -1.32969,-0.593529 -3.75528,-1.011236 -6.59694,-1.136046 -1.28973,-0.05664 -2.77064,-0.140675 -3.29094,-0.18673 l -0.94597,-0.08374 0.10626,2.082105 c 0.0624,1.221719 0.0101,2.530365 -0.12637,3.16688 -0.37253,1.73701 -1.43129,4.050494 -2.74037,5.987935 -0.82258,1.217418 -1.43276,2.431253 -1.88815,3.756134 -0.81869,2.381813 -2.05456,4.459823 -4.12814,6.941103 -1.96553,2.35199 -3.42287,3.62281 -7.27527,6.34414 -4.434667,3.13264 -6.923473,5.75253 -7.332737,7.71893 -0.240273,1.15444 0.867781,1.77192 3.764326,2.09774 1.845101,0.20755 3.640901,0.05 5.959521,-0.52279 z m 42.44913,-9.48541 c 0.49602,-0.226 0.93733,-1.0865 0.93733,-1.82769 0,-0.42517 -1.35492,-1.81456 -1.76955,-1.81456 -0.37064,0 -0.59477,0.63947 -0.77698,2.21681 -0.11568,1.00137 -0.0864,1.33957 0.1277,1.47521 0.38178,0.2419 0.87795,0.22523 1.4815,-0.0498 z m -47.42043,-1.74261 c 2.05817,-1.38932 4.21883,-3.39296 4.01482,-3.72306 -0.10257,-0.16596 -1.26407,-0.22495 -3.95055,-0.20064 -2.092895,0.0189 -5.479868,-0.0353 -7.526605,-0.12042 -3.124646,-0.13001 -3.72134,-0.10914 -3.72134,0.13016 0,0.15674 0.802892,1.0714 1.784204,2.03257 1.786689,1.75002 3.38136,2.73182 5.454567,3.35825 1.033303,0.31221 1.619789,0.0926 3.944904,-1.47686 z m 77.15991,-7.79536 c 1.78036,-0.30546 1.8952,-0.47441 1.00201,-1.47407 -0.45775,-0.512313 -0.80837,-0.679878 -1.68225,-0.803964 -1.38563,-0.196751 -28.2393,-0.23171 -39.69281,-0.05167 l -8.57916,0.134855 -0.12042,0.680779 c -0.0662,0.37443 -0.17369,0.979 -0.23879,1.34348 l -0.11838,0.66271 23.92475,-0.11049 c 18.56181,-0.0857 24.27899,-0.17127 25.50505,-0.38163 z m -81.530017,0.15813 c -0.04908,-0.0794 -0.386411,-0.20892 -0.749612,-0.28777 -0.363202,-0.0789 -1.577957,-0.61353 -2.699457,-1.18817 l -2.03909,-1.044798 -7.952452,-0.05817 c -4.373848,-0.032 -8.447902,0.01388 -9.053454,0.101955 -1.02259,0.148724 -1.118541,0.210956 -1.347257,0.873813 -0.556812,1.61372 -0.556147,1.59441 -0.05849,1.69688 0.75648,0.15577 23.997688,0.0646 23.89982,-0.0937 z m 12.924827,-0.42047 c 0.13458,-0.13458 0.24469,-0.36585 0.24469,-0.51392 0,-0.19855 -0.21413,-0.15999 -0.81563,0.14688 -0.44861,0.22886 -0.81564,0.46012 -0.81564,0.51392 0,0.20749 1.1545,0.0852 1.38658,-0.14688 z M 60.460717,98.605999 c 0.250509,-0.757012 0.802978,-2.242925 1.22771,-3.30203 0.424732,-1.059103 0.732794,-1.989469 0.684582,-2.067478 -0.04821,-0.07801 -0.330465,-0.202776 -0.627228,-0.277258 -0.296762,-0.07449 -0.841752,-0.36591 -1.211088,-0.647617 -0.79587,-0.607039 -0.71515,-0.702426 -1.709285,2.019853 -0.359879,0.985471 -0.875365,2.178338 -1.145525,2.650818 -0.27016,0.472479 -0.492305,0.968371 -0.493656,1.101982 -0.0014,0.133611 0.548099,0.536371 1.220998,0.895023 0.672899,0.358651 1.223454,0.731069 1.223454,0.827594 0,0.09652 0.08428,0.175499 0.187284,0.175499 0.103007,0 0.392246,-0.619374 0.642754,-1.376386 z m 44.845583,0.02866 c 3.14462,-0.652787 6.09357,-2.55403 8.39963,-5.415398 0.94851,-1.176915 2.28054,-3.652095 2.51859,-4.680048 0.15549,-0.671464 -0.11548,-0.741943 -3.47554,-0.903982 -2.94666,-0.142102 -4.20787,-0.385851 -5.3377,-1.031594 -1.81741,-1.038722 -2.20585,-2.427835 -1.06571,-3.811027 1.09397,-1.327183 2.00976,-1.674433 4.36432,-1.654883 1.75949,0.01461 2.2059,0.09263 3.25561,0.569009 0.66909,0.303643 1.39578,0.70894 1.61487,0.900659 0.37765,0.330466 0.39127,0.329202 0.26206,-0.02433 -0.29665,-0.811625 -1.6564,-2.632077 -2.45441,-3.285982 -1.58225,-1.296535 -2.89534,-1.813841 -4.84764,-1.909771 -2.36095,-0.116011 -3.48902,0.263378 -5.02776,1.690919 -0.63965,0.593425 -1.48416,1.642522 -1.87668,2.331327 -0.48262,0.846902 -0.81271,1.22179 -1.01955,1.157911 -0.16822,-0.05195 -0.672897,-0.234103 -1.121497,-0.404776 -1.878681,-0.71476 -4.888091,-0.26523 -6.510928,0.972567 -1.430287,1.090934 -2.788566,3.724481 -3.177894,6.161571 -0.335422,2.099663 0.336867,5.993068 0.728646,4.219777 0.396451,-1.794442 0.786488,-2.790392 1.527147,-3.899538 1.522672,-2.28022 3.451709,-3.396364 5.630207,-3.257648 0.988637,0.06295 1.407473,0.18876 1.741952,0.523239 0.420384,0.420383 0.428814,0.503179 0.185854,1.825245 -0.400769,2.18078 -0.845098,2.924588 -3.269965,5.473936 -1.242234,1.306005 -2.258608,2.53207 -2.258608,2.724589 0,0.668318 2.63089,1.741609 4.99099,2.036112 1.553056,0.193796 4.512516,0.0474 6.224006,-0.307884 z m -3.8138,-2.52341 c -1.36916,-0.29159 -2.507379,-1.006016 -2.507379,-1.573797 0,-0.362575 0.986031,-1.284069 1.373999,-1.284069 0.1622,0 0.52821,0.183518 0.81336,0.407818 1.73836,1.367393 7.39636,-0.826603 7.39636,-2.868076 0,-0.703065 0.8452,-1.496832 1.40472,-1.319246 0.23093,0.07329 0.61719,0.410374 0.85836,0.749067 0.51205,0.719101 0.41398,1.05909 -0.77121,2.67364 -0.76051,1.036015 -1.8484,1.875797 -3.51329,2.712025 -1.14693,0.576066 -3.57602,0.817604 -5.05492,0.502638 z m 0.41134,-4.478989 c -1.16873,-0.712624 -1.41537,-1.913882 -0.66625,-3.24493 0.6946,-1.234181 1.68803,-1.760991 3.32078,-1.760991 1.31569,0 1.42618,0.03701 1.98811,0.665922 0.40177,0.449656 0.595,0.883687 0.595,1.336464 0,0.8591 -1.00594,2.458957 -1.88194,2.993057 -0.88416,0.539074 -2.48061,0.544059 -3.3557,0.01048 z m 1.04164,-3.180117 c 0.18591,-0.740713 -0.0478,-1.006121 -0.51415,-0.584029 -0.50692,0.458761 -0.50801,1.103179 -0.002,1.103179 0.24323,0 0.43385,-0.191778 0.51601,-0.51915 z M 55.527054,96.09424 c 0.515387,-0.983213 1.905274,-4.638034 2.122424,-5.581085 0.04159,-0.180641 -1.791138,-1.544414 -2.069047,-1.53962 -0.108895,0.0019 -2.478766,5.695525 -2.814625,6.762175 -0.07377,0.234278 0.164045,0.537959 0.758483,0.968568 0.476269,0.345008 0.975796,0.627287 1.11006,0.627287 0.134264,0 0.535981,-0.556796 0.892705,-1.237325 z m -4.309185,-2.895742 c 1.230352,-2.76238 2.168364,-5.458027 1.963695,-5.64324 -0.09786,-0.08856 -0.603204,-0.40513 -1.122986,-0.703494 l -0.945057,-0.54248 -0.134678,0.536598 c -0.07407,0.295129 -0.681518,1.820359 -1.349878,3.389399 -1.647615,3.867932 -1.621598,3.622891 -0.455148,4.28669 0.5363,0.305197 1.026196,0.557535 1.088657,0.560751 0.06246,0.0032 0.492388,-0.844686 0.955395,-1.884224 z M 46.760896,90.61397 c 0.34579,-0.735244 1.00292,-2.20852 1.460289,-3.273945 0.457369,-1.065424 0.878391,-2.043544 0.935604,-2.1736 0.05721,-0.130056 -0.07919,-0.294616 -0.303124,-0.365689 -0.223932,-0.07107 -0.755108,-0.365355 -1.18039,-0.65396 l -0.773243,-0.524736 -0.312697,0.466905 c -0.353691,0.528114 -3.148895,6.424514 -3.358246,7.084118 -0.11664,0.367503 0.03457,0.515484 1.046789,1.024462 l 1.183124,0.594911 0.336593,-0.420828 c 0.185127,-0.231455 0.619512,-1.022392 0.965301,-1.757638 z m 49.364783,0.705258 c 0.864892,-0.545983 1.228169,-1.055565 1.228169,-1.722798 0,-0.646468 -0.489434,-0.510765 -1.827206,0.50662 -1.497956,1.139205 -1.583577,1.26966 -0.989642,1.507865 0.677117,0.271566 0.70435,0.266566 1.588679,-0.291687 z M 41.707684,87.505792 c 0.636845,-1.182685 1.528234,-2.732803 1.980865,-3.444708 0.847222,-1.332519 0.892087,-1.614875 0.2566,-1.614875 -1.089631,0 -3.591921,3.337378 -3.964556,5.287648 -0.165997,0.868782 0.04697,2.096347 0.346364,1.996547 0.122556,-0.04085 0.743883,-1.041928 1.380727,-2.224612 z m 69.344766,-2.285906 c 1.99724,-0.417877 2.3091,-0.720599 1.15633,-1.122457 -1.8817,-0.655966 -3.9868,0.163351 -2.98743,1.162724 0.30074,0.300737 0.18959,0.303182 1.8311,-0.04027 z M 95.9861,78.743942 c 0.584173,-0.31264 0.292908,-0.676872 -0.585235,-0.731845 -0.929369,-0.05818 -1.629769,0.370472 -1.434937,0.878196 0.103387,0.269423 0.283536,0.309087 0.888434,0.195607 0.417314,-0.07829 0.926596,-0.232169 1.131738,-0.341958 z m 7.95194,-3.05892 c 0.47217,-0.242003 0.75065,-0.476762 0.61884,-0.521687 -0.23717,-0.08083 -1.90139,0.675294 -1.90139,0.863884 0,0.203765 0.45331,0.08282 1.28255,-0.342197 z M 86.823714,75.001955 c -0.145683,-0.379643 0.09288,-0.746468 2.403453,-3.695618 1.012742,-1.292637 1.790949,-2.400647 1.72935,-2.462246 -0.0616,-0.0616 -0.643158,-0.169069 -1.292355,-0.238824 -1.147384,-0.123283 -1.180356,-0.143915 -1.180356,-0.738553 v -0.611728 l 1.733227,-0.06404 c 0.953274,-0.03523 2.214962,-0.0057 2.803749,0.06565 1.065951,0.12914 1.070522,0.132784 1.070522,0.853314 0,0.611324 -0.28568,1.068541 -1.840872,2.946224 -1.150055,1.388536 -1.743087,2.25683 -1.580295,2.313807 0.143318,0.05016 0.673493,0.117084 1.178168,0.148716 0.759442,0.0476 0.928289,0.132532 0.979667,0.492778 0.03976,0.278801 -0.135047,0.590322 -0.486295,0.866614 -0.488544,0.384289 -0.813019,0.431348 -2.974179,0.431348 -1.973691,0 -2.447797,-0.0573 -2.543784,-0.307439 z M 80.4294,69.870904 c -1.360011,-0.13642 -4.183233,-0.490242 -4.84284,-0.606931 -1.269367,-0.22456 -0.828016,-1.174716 1.975953,-4.253899 0.816051,-0.896147 1.93651,-2.067614 2.489909,-2.60326 0.553399,-0.535646 0.958063,-1.051757 0.899253,-1.146915 -0.05881,-0.09516 -0.616526,-0.215273 -1.239368,-0.266924 -1.245083,-0.103252 -1.608011,-0.321624 -1.406647,-0.846372 0.244378,-0.636837 0.761656,-0.727189 2.95662,-0.516427 3.063099,0.294122 3.041391,0.286845 3.041391,1.019454 0,0.522674 -0.382757,1.017042 -2.325633,3.003773 -2.717908,2.77926 -3.421008,3.59838 -3.242194,3.777194 0.07164,0.07164 0.780213,0.131658 1.574609,0.133375 0.794395,0.0017 1.550864,0.07089 1.68104,0.153718 0.49233,0.313252 -0.202533,2.411751 -0.746458,2.254313 -0.05607,-0.01623 -0.42311,-0.06172 -0.815635,-0.101099 z m -7.748543,-5.886841 c -0.728975,-0.160162 -1.807144,-0.390882 -2.395931,-0.51271 -0.839567,-0.173718 -1.070523,-0.305365 -1.070523,-0.610206 0,-0.431442 3.044312,-3.133533 4.761839,-4.226544 1.212556,-0.771655 1.396901,-1.065295 0.668779,-1.065295 -0.2842,0 -0.98004,-0.09936 -1.546309,-0.220806 -0.895002,-0.191944 -1.029582,-0.285803 -1.029582,-0.718053 0,-0.847211 0.638609,-0.949567 3.226957,-0.517218 1.270152,0.212162 2.405834,0.482216 2.523738,0.600119 0.556445,0.556445 -0.05888,1.247236 -2.879721,3.232904 -1.560827,1.09871 -2.803529,2.053216 -2.76156,2.121122 0.04197,0.0679 0.853808,0.239142 1.804086,0.38052 1.831325,0.272456 2.080835,0.459256 1.683587,1.260447 -0.301439,0.607958 -1.126404,0.68415 -2.98536,0.27572 z m -7.238771,-3.883021 c -1.121499,-0.261688 -2.245548,-0.527215 -2.497886,-0.590059 -0.319341,-0.07953 -0.458794,-0.265616 -0.458794,-0.612208 0,-0.621761 0.509433,-1.104217 2.43917,-2.310006 l 1.521579,-0.950753 -1.055058,-0.206831 c -1.341472,-0.262979 -1.745025,-0.6225 -1.172734,-1.044775 0.325736,-0.24035 0.796468,-0.273188 2.344954,-0.163579 2.233996,0.158133 2.651086,0.316045 2.651086,1.003716 0,0.406933 -0.287982,0.662451 -1.580294,1.402147 -0.869163,0.497493 -1.807521,1.085352 -2.08524,1.306354 l -0.504946,0.401821 1.218627,0.233395 c 2.223023,0.425761 2.437739,0.511792 2.50871,1.005186 0.0855,0.594422 -0.302331,1.059567 -0.856256,1.02694 -0.238605,-0.01406 -1.351418,-0.239661 -2.472918,-0.501348 z"
       id="path34" /></g></svg>
