<?xml version="1.0" encoding="UTF-8" standalone="no"?>
<!-- Created with Inkscape (http://www.inkscape.org/) -->

<svg
   width="10cm"
   height="10cm"
   viewBox="0 0 100 100"
   version="1.1"
   id="svg1"
   xml:space="preserve"
   sodipodi:docname="FAUltiere4head3nostroke.svg"
   inkscape:version="1.4.2 (ebf0e940d0, 2025-05-08)"
   inkscape:export-filename="FAUltiere4head3nostroke.webp"
   inkscape:export-xdpi="274.32001"
   inkscape:export-ydpi="274.32001"
   xmlns:inkscape="http://www.inkscape.org/namespaces/inkscape"
   xmlns:sodipodi="http://sodipodi.sourceforge.net/DTD/sodipodi-0.dtd"
   xmlns="http://www.w3.org/2000/svg"
   xmlns:svg="http://www.w3.org/2000/svg"><sodipodi:namedview
     id="namedview1"
     pagecolor="#ffffff"
     bordercolor="#000000"
     borderopacity="0.25"
     inkscape:showpageshadow="2"
     inkscape:pageopacity="0.0"
     inkscape:pagecheckerboard="0"
     inkscape:deskcolor="#d1d1d1"
     inkscape:document-units="mm"
     inkscape:zoom="1.4142136"
     inkscape:cx="63.63961"
     inkscape:cy="156.97771"
     inkscape:window-width="2560"
     inkscape:window-height="1388"
     inkscape:window-x="2560"
     inkscape:window-y="52"
     inkscape:window-maximized="1"
     inkscape:current-layer="layer1" /><defs
     id="defs1" /><g
     id="layer1"
     transform="translate(-14.790851,-30.240375)"><rect
       style="opacity:0.5571;fill:#654874;fill-opacity:1;stroke:none;stroke-width:0.109173;stroke-opacity:1"
       id="rect1"
       width="101.85162"
       height="101.66632"
       x="13.863596"
       y="29.404566" /><path
       style="fill:#ffffff;fill-opacity:1;stroke:none;stroke-width:2.1819;stroke-opacity:1"
       d="m 48.112663,123.24231 c -1.66339,-0.24821 -3.319291,-0.61186 -4.912482,-1.15056 -2.493406,-0.84312 -4.91897,-1.92718 -7.203336,-3.2347 -3.45109,-1.97533 -6.885625,-4.12488 -9.725213,-6.90852 -2.308632,-2.26315 -4.513125,-4.81612 -5.772941,-7.79347 -1.417833,-3.35077 -1.818541,-4.14589 -1.771646,-10.770427 0.03812,-5.39163 0.308592,-7.662396 1.219732,-10.242011 1.232217,-3.488705 1.056804,-4.122455 -1.268771,-4.583847 -0.872155,-0.173024 -1.124747,-0.635632 -1.032608,-1.891129 0.156915,-2.138278 2.443975,-4.95535 7.434055,-9.156968 2.194432,-1.84768 4.076461,-3.601213 4.182299,-3.896737 0.105853,-0.295529 -0.853021,-0.537317 -2.130788,-0.537317 -1.277769,0 -2.464652,-0.228851 -2.637504,-0.508507 -0.375583,-0.607622 2.322269,-4.107108 4.980075,-6.459811 1.755963,-1.554389 7.067708,-3.995942 8.709844,-4.003499 1.66625,-0.0081 5.029856,-1.261338 4.72174,-1.759877 -0.185671,-0.300343 -0.05374,-0.546067 0.293592,-0.546067 0.678016,0 0.563753,-2.135339 -0.177597,-3.317705 -0.34565,-0.551253 -0.118121,-0.593185 0.97102,-0.179174 1.258159,0.478323 1.466487,0.361524 1.804374,-1.012011 1.185455,-4.818811 4.765824,-8.049443 7.712712,-6.959317 1.115998,0.412893 1.280931,0.775109 0.978914,2.150217 -0.326652,1.48709 0.63682,7.008721 1.222924,7.008721 0.130787,0 0.983413,-0.844291 1.89479,-1.87621 2.354547,-2.665995 7.226657,-5.430828 11.485517,-6.517797 4.348544,-1.109857 5.466218,-0.857503 4.969414,1.122009 -0.331525,1.320795 -0.172739,1.436883 2.439336,1.783019 4.513241,0.598062 12.892876,3.105735 15.964222,4.777362 4.488815,2.44313 12.535603,9.852462 16.773003,18.576798 2.07611,4.299564 2.40471,6.71931 2.36266,10.613596 -0.0374,3.463167 -0.38464,7.163829 -0.77114,8.965896 -1.05468,4.917708 -4.05216,11.467519 -7.75838,16.952663 -1.16441,1.72334 -3.06527,4.22224 -4.949131,6.00547 -4.303773,4.07389 -9.131612,7.67226 -14.319263,10.53713 -2.913191,1.60879 -6.084556,2.763 -9.290885,3.65429 -3.097599,0.86107 -6.306346,1.33917 -9.510113,1.60826 -3.353094,0.28165 -6.731637,0.11189 -10.094698,6.1e-4 -2.2683,-0.0751 -4.549029,-0.1153 -6.793719,-0.45039 z m 22.810535,-9.71563 c 8.902866,-1.84813 17.251755,-7.23081 23.780539,-15.331739 2.685372,-3.332006 6.456533,-10.339587 7.130503,-13.249869 0.44018,-1.901003 -0.32697,-2.100557 -9.839755,-2.559299 -8.342418,-0.402323 -11.91308,-1.09239 -15.111793,-2.920582 -5.145339,-2.940778 -6.245071,-6.873555 -3.017168,-10.789555 3.097183,-3.757445 5.689912,-4.740566 12.356012,-4.685217 4.981353,0.04123 6.245209,0.262285 9.217091,1.610939 1.894284,0.859669 3.951638,2.007123 4.571903,2.549909 1.0692,0.935598 1.10775,0.932015 0.74194,-0.06901 -0.83986,-2.297843 -4.689504,-7.451792 -6.948776,-9.303093 -4.479568,-3.670673 -8.197106,-5.13524 -13.724361,-5.406823 -6.684183,-0.328464 -9.877901,0.745656 -14.234295,4.787229 -1.810943,1.680068 -4.201859,4.65021 -5.313144,6.600317 -1.366373,2.3977 -2.30089,3.459048 -2.886489,3.278214 -0.476263,-0.14712 -1.905064,-0.662809 -3.175116,-1.145978 -5.318812,-2.023596 -13.838874,-0.750918 -18.433361,2.753469 -4.049338,3.088587 -7.894823,10.54453 -8.997061,17.444269 -0.94963,5.944453 0.953716,16.967219 2.062896,11.946775 1.122412,-5.080303 2.226666,-7.899985 4.323566,-11.040136 4.310904,-6.455628 9.772283,-9.615567 15.939914,-9.222857 2.798971,0.178284 3.984756,0.534447 4.93171,1.481357 1.190171,1.190173 1.214037,1.424574 0.526193,5.16753 -1.134629,6.174097 -2.392591,8.279935 -9.257734,15.49747 -3.516938,3.69749 -6.394434,7.16865 -6.394434,7.7137 0,1.89209 7.448416,4.93075 14.130194,5.76453 4.396926,0.54862 12.775566,0.13418 17.621038,-0.87167 z m -10.797406,-7.14411 c -3.876281,-0.82554 -7.09874,-2.84819 -7.09874,-4.45566 0,-1.02649 2.791594,-3.635385 3.889981,-3.635385 0.4592,0 1.495438,0.519509 2.302739,1.154589 4.921543,3.871296 20.940142,-2.340202 20.940142,-8.119905 0,-1.990469 2.39288,-4.23774 3.976951,-3.734962 0.653784,0.207465 1.747368,1.161821 2.43015,2.120712 1.449688,2.035879 1.172042,2.998432 -2.183407,7.569445 -2.153111,2.933086 -5.23308,5.310626 -9.946627,7.678106 -3.247113,1.63094 -10.124208,2.31476 -14.311189,1.42306 z m 1.164563,-12.680648 c -3.308843,-2.017546 -4.00711,-5.418463 -1.886247,-9.186837 1.966507,-3.494148 4.779054,-4.985622 9.401605,-4.985622 3.724898,0 4.037709,0.104817 5.628613,1.885318 1.137469,1.273042 1.684531,2.501828 1.684531,3.783713 0,2.432234 -2.847962,6.961664 -5.328039,8.473762 -2.50318,1.526201 -7.022961,1.540306 -9.500463,0.02935 z m 2.949032,-9.003352 c 0.526317,-2.097075 -0.135302,-2.84848 -1.45563,-1.65347 -1.435166,1.298804 -1.438252,3.123252 -0.0055,3.123252 0.688617,0 1.228284,-0.542946 1.460892,-1.469782 z m -19.307823,8.117132 c 2.448635,-1.54575 3.477124,-2.988456 3.477124,-4.877479 0,-1.830236 -1.385656,-1.446045 -5.173079,1.434308 -4.240918,3.225243 -4.483331,3.594582 -2.801817,4.268986 1.917012,0.768827 1.994111,0.754681 4.497772,-0.825815 z M 87.191353,75.547593 c 5.654484,-1.183072 6.537404,-2.040111 3.273752,-3.177831 -5.327358,-1.857129 -11.287205,0.462447 -8.457841,3.291843 0.851433,0.851434 0.536755,0.858355 5.184089,-0.113933 z M 44.536399,57.213289 c 1.653879,-0.885131 0.829261,-1.916319 -1.656883,-2.071953 -2.631173,-0.164664 -4.614103,1.048856 -4.062506,2.486294 0.292718,0.762769 0.802732,0.875069 2.515279,0.553816 1.18148,-0.221663 2.623322,-0.657274 3.20411,-0.968133 z m 22.513066,-8.660236 c 1.336782,-0.685127 2.125195,-1.349773 1.752017,-1.476965 -0.671445,-0.22885 -5.383106,1.911855 -5.383106,2.445773 0,0.576939 1.283393,0.234539 3.631089,-0.968808 z"
       id="path34"
       sodipodi:nodetypes="aaaaassssssssscssssssssssssscscsaaaaaassssscsscssssssssssssssssccscscssssssccsssscccssccsssssssssssssssssssss" /></g></svg>
