<?xml version="1.0" encoding="UTF-8" standalone="no"?>
<!-- Created with Inkscape (http://www.inkscape.org/) -->

<svg
   width="10cm"
   height="10cm"
   viewBox="0 0 100 100"
   version="1.1"
   id="svg1"
   xml:space="preserve"
   sodipodi:docname="FAUltiere4.svg"
   inkscape:version="1.4.2 (ebf0e940d0, 2025-05-08)"
   inkscape:export-filename="FAUltiere3.webp"
   inkscape:export-xdpi="31.165785"
   inkscape:export-ydpi="31.165785"
   xmlns:inkscape="http://www.inkscape.org/namespaces/inkscape"
   xmlns:sodipodi="http://sodipodi.sourceforge.net/DTD/sodipodi-0.dtd"
   xmlns="http://www.w3.org/2000/svg"
   xmlns:svg="http://www.w3.org/2000/svg"><sodipodi:namedview
     id="namedview1"
     pagecolor="#ffffff"
     bordercolor="#000000"
     borderopacity="0.25"
     inkscape:showpageshadow="2"
     inkscape:pageopacity="0.0"
     inkscape:pagecheckerboard="0"
     inkscape:deskcolor="#d1d1d1"
     inkscape:document-units="mm"
     inkscape:zoom="2"
     inkscape:cx="55.5"
     inkscape:cy="136.5"
     inkscape:window-width="2560"
     inkscape:window-height="1388"
     inkscape:window-x="2560"
     inkscape:window-y="52"
     inkscape:window-maximized="1"
     inkscape:current-layer="layer1" /><defs
     id="defs1" /><g
     id="layer1"
     transform="translate(-14.790851,-30.240375)"><rect
       style="opacity:0.5571;fill:#654874;fill-opacity:1;stroke:none;stroke-width:0.109173;stroke-opacity:1"
       id="rect1"
       width="101.85162"
       height="101.66632"
       x="13.863596"
       y="29.404566" /><path
       style="fill:#ffffff;fill-opacity:1;stroke:#ffffff;stroke-width:0.349143;stroke-opacity:1"
       d="m 63.422819,116.66086 c -0.969169,-0.10189 -1.491067,-0.24045 -2.888406,-0.76685 -2.758354,-1.03911 -5.294268,-3.31006 -6.773883,-6.06614 -1.480584,-2.75788 -1.960679,-5.8655 -1.35577,-8.77583 0.46969,-2.25976 1.029985,-3.673883 2.067652,-5.218542 1.583322,-2.356926 4.795601,-4.576561 7.491143,-5.176258 l 0.668217,-0.148664 0.05777,-0.943955 c 0.03176,-0.519164 0.106852,-1.087939 0.166871,-1.263939 0.175241,-0.513924 0.625128,-1.103936 0.965536,-1.266273 l 0.315184,-0.150296 v -5.710278 c 0,-3.140655 -0.03117,-5.709745 -0.06929,-5.709098 -0.0381,8.86e-4 -0.381058,0.09998 -0.76211,0.220731 -0.381059,0.120756 -0.901225,0.247476 -1.155933,0.281613 -0.43704,0.05857 -0.472136,0.0839 -0.623549,0.449974 -0.346392,0.8375 -0.09107,2.338027 0.530994,3.120566 0.376922,0.47417 0.385996,0.5129 0.13851,0.591447 -0.571703,0.181452 -1.383559,-0.55057 -1.755954,-1.583277 -0.183902,-0.509992 -0.229583,-0.815203 -0.233181,-1.558007 -0.0024,-0.508075 -0.03468,-0.916497 -0.0716,-0.907608 -0.219273,0.05282 -0.266059,0.118699 -0.350188,0.493133 -0.0993,0.441951 -0.06265,0.907766 0.162279,2.062811 0.156126,0.801717 0.11487,1.170737 -0.130386,1.16623 -0.278166,-0.005 -0.474545,-0.229646 -0.773816,-0.884762 -0.351448,-0.769338 -0.44149,-1.680211 -0.260769,-2.637992 0.1162,-0.615837 0.113131,-0.648687 -0.07852,-0.840342 -0.123481,-0.123483 -0.229835,-0.165637 -0.27922,-0.11066 -0.178549,0.198726 -0.406466,1.6984 -0.430342,2.831604 -0.01383,0.656112 -0.04529,1.213087 -0.06992,1.237718 -0.11684,0.116842 -0.534097,-0.205952 -0.653874,-0.505846 -0.370952,-0.928763 -0.430099,-2.925178 -0.112504,-3.797436 0.08313,-0.228314 0.21427,-0.727152 0.291419,-1.108526 0.172792,-0.854151 0.545918,-1.679592 1.044159,-2.309917 0.208058,-0.263212 0.378288,-0.508121 0.378288,-0.544241 0,-0.0361 -0.197456,-0.160182 -0.438792,-0.275688 -0.759852,-0.363684 -1.71425,-0.955388 -2.21227,-1.371557 -0.976973,-0.816413 -1.54319,-1.455722 -1.443654,-1.630021 0.03285,-0.05754 0.02512,-0.07321 -0.01717,-0.03484 -0.0423,0.03838 -0.192366,-0.104595 -0.333478,-0.317748 l -0.256566,-0.387545 -2.752875,0.01867 c -1.514081,0.01028 -3.255888,0.04422 -3.870683,0.07544 -1.260172,0.06402 -1.343213,0.04618 -2.762035,-0.593472 -1.158491,-0.522282 -2.228675,-0.990843 -3.879842,-1.698722 -0.711304,-0.304947 -2.699885,-1.264698 -4.419065,-2.132783 -3.418884,-1.726333 -3.684231,-1.909632 -4.168484,-2.879544 -0.355908,-0.712849 -0.446068,-2.015574 -0.187679,-2.711755 0.353604,-0.952722 1.276948,-1.577809 2.449358,-1.658169 0.904877,-0.06202 1.338961,0.07838 2.545291,0.823231 0.504288,0.311374 1.582003,0.968585 2.394921,1.460467 0.81292,0.491884 1.976873,1.228445 2.586562,1.636802 1.432659,0.959566 4.552842,2.878049 5.2655,3.237559 1.13071,0.570399 1.286789,0.590719 4.480295,0.58329 1.600434,-0.0037 3.040985,-0.0312 3.201222,-0.06108 l 0.291341,-0.05431 -0.291341,-0.614932 c -0.278599,-0.588038 -0.290998,-0.663415 -0.283494,-1.723459 0.0061,-0.862752 0.04938,-1.226115 0.195178,-1.6389 0.197176,-0.558251 0.169107,-0.659662 -0.203025,-0.733492 -0.13956,-0.02769 -0.179979,-0.101713 -0.165235,-0.302614 0.02511,-0.342162 0.391078,-0.792943 1.189577,-1.465272 0.351147,-0.295662 0.652304,-0.576257 0.66924,-0.623546 0.01694,-0.04729 -0.136498,-0.08598 -0.340963,-0.08598 -0.204465,0 -0.394387,-0.03662 -0.422046,-0.08137 -0.0601,-0.09723 0.371603,-0.657208 0.796898,-1.033681 0.280984,-0.248729 1.130955,-0.63942 1.393725,-0.640629 0.266629,-0.0013 0.804864,-0.201836 0.75556,-0.281611 -0.02971,-0.04806 -0.0086,-0.08738 0.04698,-0.08738 0.108494,0 0.09021,-0.341691 -0.02842,-0.53089 -0.05531,-0.08821 -0.0189,-0.09492 0.15538,-0.02867 0.201327,0.07654 0.234663,0.05785 0.288731,-0.161939 0.189693,-0.771093 0.762614,-1.28805 1.234167,-1.113611 0.178579,0.06607 0.204971,0.124031 0.156643,0.344072 -0.05227,0.23796 0.101902,1.121516 0.195689,1.121516 0.02093,0 0.157363,-0.135101 0.303199,-0.300226 0.376768,-0.426605 1.15639,-0.869026 1.837881,-1.04296 0.695842,-0.177596 0.874689,-0.137215 0.795192,0.179541 -0.05305,0.21135 -0.02764,0.229926 0.390336,0.285314 0.722196,0.0957 2.063083,0.496971 2.55455,0.76446 0.71829,0.390943 2.005914,1.667515 2.420189,2.39941 0.0069,0.01226 0.799337,0.03834 1.760883,0.05796 2.137144,0.04359 3.29318,0.250392 4.778086,0.854731 1.223167,0.497814 2.112984,1.002828 2.938837,1.667936 1.275266,1.02704 2.815758,3.036683 3.246641,4.235399 l 0.231576,0.644228 2.943868,0.05675 c 1.619134,0.03121 4.918416,0.06263 7.331776,0.06979 2.749382,0.0082 4.518793,0.0494 4.738404,0.110381 0.495425,0.137575 1.130062,0.775849 1.261987,1.269209 0.325567,1.217595 -0.401114,2.175072 -1.771286,2.333841 -0.36993,0.04285 -3.644827,0.08327 -7.277548,0.08978 l -6.604959,0.01182 0.415698,0.187772 c 0.567288,0.256253 0.729414,0.413301 0.982148,0.951375 0.790521,1.683043 -0.754002,3.431908 -2.528348,2.862846 -0.140245,-0.04498 -0.218193,-0.02583 -0.24239,0.05966 -0.01962,0.06927 -0.253983,1.040488 -0.520818,2.158252 -1.234013,5.169247 -1.737983,6.767533 -2.449465,7.768248 -0.365388,0.513928 -0.397594,0.797036 -0.167884,1.476107 0.236275,0.698524 0.519736,1.052799 1.324184,1.655021 0.406382,0.304232 0.738871,0.607728 0.738871,0.674452 0,0.155379 -0.55576,0.389021 -0.925388,0.389021 -0.423087,0 -0.738723,-0.202229 -1.175214,-0.752963 -0.215398,-0.27177 -0.430167,-0.540623 -0.477264,-0.59744 -0.147674,-0.178156 -0.53368,-0.993415 -0.599339,-1.265818 -0.03547,-0.1471 -0.111621,-0.2433 -0.174874,-0.220881 -0.339729,0.120416 0.235726,1.661761 0.991377,2.655372 0.231427,0.304311 0.420781,0.573622 0.420781,0.598456 0,0.0248 -0.115061,0.04513 -0.255687,0.04513 -0.500129,0 -1.56501,-0.892066 -2.315733,-1.939923 -0.600425,-0.838072 -0.680866,-0.923767 -0.867061,-0.923767 -0.197821,0 -0.196448,-0.04984 -0.01545,0.560589 0.203062,0.684916 0.437393,1.122364 0.981579,1.832363 0.764676,0.997666 0.807637,1.297251 0.160165,1.116705 -0.840415,-0.234347 -1.809684,-1.343489 -2.562894,-2.932753 -0.1865,-0.393508 -0.489016,-0.96489 -0.672258,-1.26973 -0.436957,-0.726912 -0.962986,-1.969527 -1.217495,-2.876047 -0.178172,-0.634611 -0.203801,-0.949011 -0.202292,-2.481834 0.0022,-2.06237 0.129349,-2.909643 0.749563,-4.988369 1.043603,-3.497743 1.165578,-4.02503 0.960427,-4.15182 -0.163825,-0.101254 -0.335742,0.04932 -0.601938,0.527188 -0.790196,1.418541 -1.712057,2.639592 -3.005425,3.980855 -0.923617,0.957826 -1.599413,1.498628 -2.603666,2.083586 l -0.727732,0.423889 -0.03542,5.978315 -0.03542,5.978322 0.402886,0.236111 c 0.809296,0.474279 1.137145,1.176436 1.214981,2.602132 l 0.05122,0.938303 0.425962,0.06211 c 1.647853,0.240333 4.390423,1.746216 5.954768,3.269614 0.907554,0.883798 1.984024,2.254855 2.512947,3.20066 0.538424,0.962803 1.131736,2.510062 1.403637,3.66047 0.221157,0.93572 0.247564,1.22634 0.246295,2.71087 -0.0018,1.94646 -0.113267,2.73833 -0.592248,4.2023 -0.718775,2.19686 -1.717075,3.85873 -3.219168,5.35889 -2.800198,2.79661 -6.730924,4.12921 -10.890111,3.692 z m 0.965506,-6.58091 -0.01893,-3.62777 -0.302757,-0.14894 -0.302761,-0.14893 -1.175933,1.20153 c -0.646761,0.66084 -1.626945,1.64328 -2.17818,2.18319 -0.551235,0.53992 -1.128029,1.13973 -1.281764,1.3329 l -0.279517,0.35124 0.219426,0.23481 c 0.403578,0.43191 1.808862,1.30206 2.588729,1.60294 0.671021,0.2589 2.118484,0.61567 2.592476,0.63901 0.147059,0.007 0.156836,-0.24704 0.139227,-3.61998 z m 3.050799,3.34873 c 0.831154,-0.16341 1.81372,-0.54605 2.56395,-0.99846 0.484757,-0.29232 1.616601,-1.14468 1.616601,-1.21743 0,-0.0313 -1.107914,-1.17152 -2.46204,-2.53385 l -2.462044,-2.47694 -0.401649,0.19513 -0.401654,0.19514 v 3.55192 3.5519 l 0.346416,-0.0497 c 0.190527,-0.0274 0.730717,-0.12532 1.20042,-0.21766 z m -4.955725,-7.96093 c 0.168288,-0.1162 0.165674,-0.13729 -0.07917,-0.63851 -0.238892,-0.48902 -0.27615,-0.52168 -0.658712,-0.57736 -0.223023,-0.0325 -1.75645,-0.059 -3.407618,-0.059 h -3.002124 l 0.06314,0.62355 c 0.173573,1.71414 0.943403,3.56978 2.143906,5.16779 l 0.221534,0.29488 2.272506,-2.34558 c 1.249877,-1.29007 2.350817,-2.39965 2.446537,-2.46575 z m 10.860691,3.78163 c 0.87681,-1.31336 1.510743,-3.01376 1.652695,-4.43297 l 0.06237,-0.62355 h -3.422489 -3.422494 l -0.06454,0.20786 c -0.03547,0.11431 -0.143507,0.32 -0.240029,0.45706 l -0.175495,0.24923 1.399051,1.41216 c 0.769483,0.77669 1.856174,1.91896 2.414871,2.53837 0.5587,0.61942 1.063188,1.10799 1.121085,1.0857 0.0579,-0.0224 0.361636,-0.42452 0.674971,-0.89386 z m -7.562686,-4.35491 c 0.607308,-0.31598 0.928036,-0.99216 0.762395,-1.6073 -0.210829,-0.78296 -0.764043,-1.17897 -1.535709,-1.09934 -0.662387,0.0684 -0.986867,0.26085 -1.238108,0.73444 -0.261889,0.49366 -0.213454,0.89425 0.172546,1.4271 0.444247,0.61328 1.249234,0.85189 1.838876,0.5451 z m -12.333091,-3.79624 c 0.274889,-0.91453 0.633159,-1.974306 0.796158,-2.355047 0.76502,-1.786985 2.876246,-4.217928 4.686256,-5.395928 0.866418,-0.563893 2.285648,-1.233129 2.943155,-1.38786 0.60579,-0.142542 0.839549,-0.447043 0.558752,-0.727839 -0.166875,-0.166874 -0.634187,-0.09071 -1.621093,0.264162 -2.264383,0.814259 -4.433027,2.56205 -6.157215,4.962331 -0.331963,0.462137 -0.919531,1.602056 -1.268704,2.461378 -0.265605,0.653667 -0.703945,2.655223 -0.702011,3.205543 0.0016,0.46012 0.09475,0.80817 0.190382,0.71143 0.04099,-0.0414 0.299433,-0.82364 0.57432,-1.73817 z m 8.848429,1.25408 c 0.09271,-0.20707 0.212159,-0.3765 0.265449,-0.3765 0.207122,0 0.07185,-0.18834 -0.57284,-0.7976 -0.368351,-0.3481 -1.452297,-1.402252 -2.408765,-2.342556 l -1.739032,-1.709643 -0.278097,0.323315 c -1.125032,1.307982 -1.84088,2.952664 -2.153798,4.948424 l -0.05892,0.37574 3.388716,-0.0224 3.388715,-0.0224 z m 12.677405,-0.007 c -0.112284,-0.87045 -0.496736,-2.16185 -0.887638,-2.9817 -0.359603,-0.754194 -1.35823,-2.191429 -1.522652,-2.191429 -0.03374,0 -0.997902,0.928239 -2.142495,2.062753 -1.144593,1.134506 -2.220189,2.167546 -2.390212,2.295646 l -0.30913,0.23291 0.193661,0.3796 c 0.106516,0.20879 0.19373,0.43323 0.193822,0.49875 1.26e-4,0.0952 0.696653,0.11915 3.459211,0.11915 h 3.459054 z m -9.224458,-1.59352 c 0.02002,-0.0636 0.05999,-2.718219 0.08888,-5.899345 l 0.05252,-5.783898 -0.210107,-0.311784 c -0.293913,-0.43613 -0.638765,-0.543406 -0.966696,-0.300714 -0.509666,0.37718 -0.497461,0.190422 -0.427417,6.542411 l 0.06472,5.86881 h 0.680866 c 0.463728,0 0.692468,-0.0369 0.717226,-0.11548 z m 3.579306,-2.355067 c 1.209068,-1.206377 2.198304,-2.237846 2.198304,-2.292148 0,-0.240546 -1.164958,-1.081851 -2.263396,-1.634584 -0.691847,-0.348146 -1.514932,-0.62339 -1.864156,-0.62339 h -0.214176 l -0.0083,2.286336 c -0.0046,1.257483 -0.03575,2.774828 -0.06928,3.371865 -0.03357,0.597038 -0.04218,1.085478 -0.01916,1.085428 0.02302,-5e-5 1.031082,-0.987123 2.240145,-2.193507 z m -6.344687,-1.340015 c -0.03723,-1.740154 -0.07563,-3.172795 -0.08532,-3.183654 -0.06557,-0.07339 -1.334513,0.411017 -1.926725,0.735492 -0.778913,0.426768 -2.094422,1.36019 -2.098255,1.488822 -0.0032,0.108022 3.980315,4.123262 4.090691,4.123262 0.05443,0 0.06181,-1.191426 0.01962,-3.163922 z M 71.1336,92.395294 c 0.04914,-0.147402 -1.194988,-0.796073 -2.088135,-1.088732 -0.636927,-0.208709 -0.787359,-0.230973 -0.855323,-0.126613 -0.152545,0.234234 -0.04947,0.570059 0.196335,0.639722 0.127016,0.03597 0.667418,0.192265 1.200899,0.347264 1.419982,0.412558 1.481785,0.421685 1.546224,0.228359 z m 4.57535,-11.203595 c 0.128892,-0.101389 0.367141,-0.419638 0.529444,-0.707223 l 0.295101,-0.522884 0.141188,0.291526 c 0.15823,0.326703 0.281114,0.370411 0.365129,0.129861 0.03108,-0.08891 0.296717,-0.771603 0.590354,-1.517094 0.552163,-1.40182 1.237229,-3.803706 1.572889,-5.514674 0.105957,-0.540073 0.435073,-1.979625 0.731374,-3.199005 0.296304,-1.219379 0.56276,-2.362545 0.59213,-2.540374 l 0.05339,-0.323319 -2.563316,-0.02039 c -1.409819,-0.01124 -2.729592,0.0099 -2.932821,0.04711 -0.363454,0.0664 -0.37153,0.07658 -0.492925,0.620853 -0.06789,0.304337 -0.2231,0.853153 -0.344929,1.219592 -0.337763,1.0159 -1.235779,4.765107 -1.378199,5.753961 -0.237968,1.6523 -0.259705,2.473561 -0.09171,3.465119 0.258695,1.526966 0.698556,2.728219 0.996633,2.721773 0.06062,-0.0013 0.186404,-0.16759 0.279502,-0.369511 0.09309,-0.201915 0.217804,-0.366965 0.277128,-0.366769 0.05933,1.9e-4 0.284319,0.228821 0.499984,0.50807 0.215666,0.279248 0.449086,0.507721 0.518712,0.507721 0.06963,0 0.232047,-0.08294 0.36094,-0.184333 z m -12.382309,-7.07869 c 2.096209,-0.517864 3.698843,-1.540964 5.328375,-3.401559 1.1505,-1.313642 1.371465,-1.604197 1.900833,-2.499497 0.801653,-1.35581 1.156892,-2.158998 1.400624,-3.166789 0.216445,-0.894963 0.235435,-1.118995 0.197472,-2.329654 -0.0231,-0.736708 -0.02455,-1.391432 -0.0031,-1.454942 0.0213,-0.06351 0.177031,-0.115471 0.346107,-0.115471 0.48811,0 0.868108,0.523913 1.105532,1.524224 l 0.109633,0.461887 3.272517,0.04749 c 1.799886,0.02612 3.305535,0.03292 3.345892,0.01512 0.08524,-0.03761 -0.361103,-0.872153 -0.996416,-1.863019 -0.574639,-0.896235 -1.346713,-1.69591 -2.494917,-2.584094 -1.148003,-0.888034 -1.264329,-0.94965 -1.654625,-0.87643 -0.221224,0.0415 -0.443562,1.66e-4 -0.760816,-0.141447 -0.602391,-0.268888 -1.701259,-0.458122 -2.98862,-0.514664 -0.58429,-0.02566 -1.255188,-0.06373 -1.490901,-0.0846 l -0.428553,-0.03794 0.04814,0.943259 c 0.02827,0.553477 0.0046,1.146335 -0.05725,1.434696 -0.168768,0.78692 -0.648419,1.835001 -1.241474,2.712722 -0.372655,0.551529 -0.649085,1.101435 -0.855391,1.701647 -0.370893,1.079037 -0.930781,2.02044 -1.870176,3.144539 -0.890448,1.065525 -1.550668,1.641246 -3.295927,2.874095 -2.009043,1.419184 -3.136551,2.606076 -3.32196,3.496917 -0.108852,0.522998 0.393131,0.802736 1.705358,0.950342 0.835889,0.09403 1.649443,0.02266 2.69985,-0.23684 z m 19.23079,-4.297188 c 0.224717,-0.102383 0.424646,-0.49222 0.424646,-0.828002 0,-0.192615 -0.613829,-0.822053 -0.801668,-0.822053 -0.167912,0 -0.269449,0.2897 -0.351996,1.004286 -0.0524,0.453651 -0.03914,0.606866 0.05786,0.668315 0.172958,0.109588 0.39774,0.102037 0.671163,-0.02257 z M 61.074485,69.026362 c 0.932416,-0.629405 1.911264,-1.537117 1.81884,-1.686662 -0.04647,-0.07518 -0.572664,-0.101914 -1.789723,-0.0909 -0.948148,0.0086 -2.482552,-0.01599 -3.409789,-0.05455 -1.415562,-0.0589 -1.685884,-0.04944 -1.685884,0.05897 0,0.07101 0.363736,0.485377 0.808301,0.920817 0.809427,0.792815 1.531862,1.237601 2.47109,1.521393 0.468119,0.141441 0.733816,0.04195 1.787165,-0.669064 z M 96.03033,65.49482 c 0.806562,-0.138383 0.858583,-0.214923 0.453947,-0.6678 -0.207376,-0.232094 -0.366216,-0.308006 -0.76211,-0.364221 -0.627741,-0.08913 -12.793276,-0.104975 -17.982078,-0.0234 l -3.886629,0.0611 -0.05455,0.308414 c -0.02999,0.169629 -0.07869,0.443517 -0.10818,0.608638 L 73.6371,65.71778 84.47576,65.66772 c 8.409063,-0.03883 10.999132,-0.07759 11.554568,-0.172891 z m -36.93564,0.07164 c -0.02223,-0.03597 -0.175057,-0.09465 -0.339598,-0.130368 -0.164541,-0.03575 -0.714864,-0.277949 -1.222938,-0.538278 l -0.923773,-0.473327 -3.60271,-0.02635 c -1.981491,-0.0145 -3.827165,0.0063 -4.1015,0.0462 -0.463265,0.06737 -0.506734,0.09557 -0.61035,0.395864 -0.252252,0.731066 -0.251951,0.722318 -0.0265,0.76874 0.342709,0.07057 10.871707,0.02927 10.827371,-0.04245 z m 5.855353,-0.190485 c 0.06097,-0.06097 0.110851,-0.165742 0.110851,-0.232822 0,-0.08995 -0.09701,-0.07248 -0.369506,0.06655 -0.203235,0.103678 -0.369511,0.208448 -0.369511,0.232821 0,0.09399 0.523025,0.0386 0.628166,-0.06655 z M 42.804514,64.031884 c 0.113489,-0.34295 0.363775,-1.016115 0.556192,-1.495924 0.192417,-0.479806 0.331979,-0.901292 0.310138,-0.936632 -0.02184,-0.03535 -0.149711,-0.09186 -0.284155,-0.125607 -0.134442,-0.03374 -0.38134,-0.165768 -0.54866,-0.293391 -0.360554,-0.275007 -0.323986,-0.318221 -0.774361,0.915058 -0.163036,0.446449 -0.396567,0.986855 -0.518958,1.200904 -0.122391,0.214047 -0.223031,0.438702 -0.223641,0.499231 -6.35e-4,0.06053 0.248306,0.242993 0.55315,0.405474 0.304844,0.16248 0.554263,0.331198 0.554263,0.374927 0,0.04372 0.03818,0.0795 0.08484,0.0795 0.04666,0 0.177699,-0.280596 0.291187,-0.623547 z m 20.316459,0.01298 c 1.424612,-0.295734 2.760579,-1.157057 3.805297,-2.453346 0.429705,-0.53318 1.033156,-1.654514 1.141001,-2.120209 0.07044,-0.304195 -0.05232,-0.336124 -1.57453,-0.409532 -1.334929,-0.06438 -1.906297,-0.174802 -2.418146,-0.467345 -0.823343,-0.470574 -0.999319,-1.099886 -0.482799,-1.726514 0.495603,-0.601256 0.910484,-0.758572 1.977174,-0.749715 0.797103,0.0066 0.999341,0.04197 1.474893,0.257779 0.303119,0.13756 0.632333,0.321172 0.731587,0.408027 0.171088,0.149712 0.177258,0.149139 0.118721,-0.01106 -0.134391,-0.367693 -0.7504,-1.192414 -1.111924,-1.488654 -0.716809,-0.587371 -1.31168,-0.821727 -2.196134,-0.865185 -1.069585,-0.05256 -1.580635,0.119318 -2.277733,0.766039 -0.289782,0.26884 -0.67237,0.744114 -0.850195,1.056165 -0.218643,0.383672 -0.368182,0.553507 -0.461888,0.524569 -0.07621,-0.02354 -0.304843,-0.106058 -0.508073,-0.183376 -0.851102,-0.323809 -2.214459,-0.120157 -2.949656,0.440603 -0.647964,0.494227 -1.263308,1.687307 -1.439685,2.791386 -0.151957,0.951214 0.152611,2.715048 0.330099,1.911691 0.179605,-0.812938 0.356305,-1.264135 0.691845,-1.766613 0.689819,-1.033012 1.563734,-1.538659 2.550661,-1.475817 0.447884,0.02852 0.63763,0.08552 0.789159,0.237043 0.190448,0.190447 0.194267,0.227957 0.0842,0.826894 -0.18156,0.987962 -0.382856,1.32493 -1.481397,2.479865 -0.562771,0.591661 -1.02322,1.147108 -1.02322,1.234325 0,0.302769 1.191875,0.789003 2.261075,0.922422 0.703584,0.08779 2.044311,0.02147 2.81967,-0.13948 z M 61.393202,62.90168 c -0.620272,-0.1321 -1.135921,-0.455758 -1.135921,-0.712981 0,-0.164258 0.446703,-0.581724 0.622464,-0.581724 0.07348,0 0.239296,0.08313 0.368478,0.184755 0.787532,0.619473 3.350784,-0.374477 3.350784,-1.299328 0,-0.318511 0.382902,-0.678112 0.636381,-0.59766 0.104617,0.0332 0.279608,0.185912 0.388866,0.339351 0.231973,0.325775 0.187545,0.479801 -0.349383,1.211243 -0.344535,0.469348 -0.837383,0.849795 -1.591632,1.228632 -0.519594,0.260977 -1.620048,0.370401 -2.290037,0.227712 z m 0.18635,-2.029123 c -0.529472,-0.322843 -0.641207,-0.867049 -0.301832,-1.470055 0.314675,-0.559124 0.764731,-0.797785 1.504419,-0.797785 0.596048,0 0.646103,0.01677 0.900675,0.301684 0.182015,0.203708 0.269554,0.400337 0.269554,0.60546 0,0.389199 -0.455723,1.113985 -0.852578,1.355949 -0.400552,0.244217 -1.123795,0.246476 -1.520238,0.0047 z m 0.471896,-1.440694 c 0.08422,-0.335566 -0.02165,-0.455804 -0.232926,-0.264583 -0.229651,0.207833 -0.230145,0.499775 -8.86e-4,0.499775 0.110191,0 0.196547,-0.08688 0.233768,-0.235192 z M 40.56941,62.893975 c 0.233487,-0.445427 0.863149,-2.101176 0.961525,-2.528407 0.01884,-0.08184 -0.811441,-0.699669 -0.937343,-0.697496 -0.04933,8.86e-4 -1.122959,2.580251 -1.275113,3.063477 -0.03343,0.106137 0.07432,0.243713 0.343616,0.438792 0.215764,0.156299 0.442066,0.284181 0.502892,0.284181 0.06082,0 0.242816,-0.252246 0.404423,-0.560547 z m -1.952196,-1.311863 c 0.557388,-1.251444 0.982338,-2.472657 0.889616,-2.556565 -0.04433,-0.04012 -0.27327,-0.183536 -0.508748,-0.318705 l -0.42814,-0.24576 -0.06101,0.243096 c -0.03356,0.133703 -0.308748,0.824679 -0.611537,1.535504 -0.746421,1.752295 -0.734635,1.641284 -0.206197,1.942006 0.242961,0.138263 0.4649,0.252581 0.493196,0.254037 0.0283,0.0015 0.223068,-0.382669 0.432825,-0.853613 z m -2.019148,-1.170871 c 0.156653,-0.333088 0.454353,-1.000529 0.661557,-1.4832 0.207202,-0.48267 0.397938,-0.925789 0.423858,-0.984708 0.02592,-0.05892 -0.03587,-0.133472 -0.137325,-0.16567 -0.101445,-0.03219 -0.342088,-0.165517 -0.534754,-0.296264 l -0.350304,-0.237721 -0.141661,0.211521 c -0.160234,0.239253 -1.426548,2.910507 -1.521391,3.209329 -0.05284,0.166489 0.01566,0.233531 0.474227,0.464114 l 0.535994,0.269513 0.152487,-0.190649 c 0.08387,-0.104852 0.280659,-0.463176 0.437312,-0.796265 z m 22.363797,0.319504 c 0.391824,-0.247347 0.5564,-0.478204 0.5564,-0.780482 0,-0.292869 -0.221729,-0.231392 -0.827782,0.229515 -0.67862,0.516096 -0.71741,0.575196 -0.448339,0.683111 0.306755,0.123028 0.319092,0.120762 0.719721,-0.132144 z M 34.308802,59.003139 c 0.28851,-0.535793 0.692337,-1.238046 0.897393,-1.560561 0.383819,-0.603673 0.404144,-0.731589 0.116249,-0.731589 -0.493637,0 -1.627253,1.511937 -1.796069,2.39547 -0.0752,0.393586 0.02128,0.949711 0.156914,0.904498 0.05552,-0.01851 0.337002,-0.472025 0.625513,-1.007818 z M 65.72416,57.967551 c 0.904813,-0.189312 1.046095,-0.326453 0.523854,-0.508508 -0.852469,-0.297173 -1.806146,0.074 -1.353399,0.526751 0.136244,0.136243 0.08589,0.137351 0.829545,-0.01824 z m -6.82553,-2.933806 c 0.264649,-0.141636 0.132696,-0.306644 -0.26513,-0.331548 -0.421033,-0.02635 -0.738336,0.167835 -0.650071,0.39785 0.04684,0.122056 0.128451,0.140026 0.402488,0.08862 0.189057,-0.03547 0.419777,-0.105175 0.512713,-0.154918 z m 3.602479,-1.385787 c 0.213908,-0.109632 0.340068,-0.215987 0.280353,-0.23634 -0.107443,-0.03662 -0.86139,0.30593 -0.86139,0.391366 0,0.09232 0.205365,0.03753 0.581037,-0.155026 z m -7.753327,-0.30945 c -0.066,-0.171991 0.04208,-0.338174 1.088839,-1.674232 0.458804,-0.585605 0.811356,-1.087568 0.78345,-1.115475 -0.02791,-0.0279 -0.29137,-0.07659 -0.585478,-0.108191 -0.5198,-0.05585 -0.534738,-0.0652 -0.534738,-0.334588 V 49.82889 l 0.785207,-0.02901 c 0.431862,-0.01596 1.003446,-0.0026 1.270186,0.02974 0.482909,0.05851 0.48498,0.06016 0.48498,0.386578 0,0.27695 -0.129422,0.484083 -0.833974,1.334732 -0.52101,0.629051 -0.789672,1.022415 -0.715922,1.048229 0.06493,0.02272 0.305113,0.05304 0.533747,0.06737 0.344051,0.02156 0.420544,0.06005 0.44382,0.223244 0.01801,0.126306 -0.06119,0.267434 -0.220307,0.392604 -0.221325,0.174094 -0.368324,0.195414 -1.347397,0.195414 -0.894144,0 -1.108929,-0.02596 -1.152413,-0.13928 z M 51.850956,51.01398 c -0.616127,-0.0618 -1.895136,-0.222095 -2.193959,-0.274959 -0.575063,-0.101735 -0.375117,-0.532182 0.895168,-1.92715 0.369698,-0.405982 0.877301,-0.936694 1.128008,-1.179358 0.250708,-0.242665 0.434032,-0.47648 0.40739,-0.519588 -0.02664,-0.04311 -0.279306,-0.09752 -0.561473,-0.120925 -0.564061,-0.04677 -0.72848,-0.145707 -0.637255,-0.383434 0.110716,-0.288507 0.345054,-0.329439 1.339441,-0.233958 1.387681,0.133247 1.377847,0.12995 1.377847,0.461846 0,0.236787 -0.173402,0.460751 -1.053585,1.360803 -1.231298,1.259092 -1.549824,1.630179 -1.468816,1.711188 0.03245,0.03245 0.353461,0.05964 0.713347,0.06042 0.359886,7.39e-4 0.702591,0.03211 0.761564,0.06964 0.223041,0.141913 -0.09176,1.092599 -0.338168,1.021275 -0.0254,-0.0074 -0.191682,-0.02796 -0.369509,-0.0458 z M 48.340622,48.347056 C 48.010374,48.2745 47.52193,48.169974 47.25519,48.114782 c -0.38035,-0.0787 -0.48498,-0.138339 -0.48498,-0.276442 0,-0.195457 1.379169,-1.419589 2.157263,-1.914758 0.549326,-0.349584 0.63284,-0.482611 0.302977,-0.482611 -0.128751,0 -0.443988,-0.04502 -0.700526,-0.100037 -0.405464,-0.08696 -0.466433,-0.129478 -0.466433,-0.3253 0,-0.383813 0.28931,-0.430184 1.461913,-0.234317 0.575418,0.09612 1.089919,0.218459 1.143333,0.271873 0.252086,0.252088 -0.02668,0.565037 -1.304605,1.464607 -0.707104,0.49775 -1.270086,0.930172 -1.251073,0.960935 0.01901,0.03076 0.386801,0.108337 0.817307,0.172389 0.829648,0.123429 0.942684,0.208056 0.762718,0.571021 -0.136561,0.275424 -0.510296,0.309942 -1.352462,0.12491 z m -3.279391,-1.759131 c -0.508073,-0.118552 -1.017303,-0.238845 -1.131621,-0.267314 -0.144671,-0.03603 -0.207847,-0.120333 -0.207847,-0.27735 0,-0.281677 0.23079,-0.500246 1.10502,-1.046505 l 0.689324,-0.430722 -0.477975,-0.0937 c -0.607729,-0.119138 -0.79055,-0.282013 -0.531285,-0.473316 0.147569,-0.108884 0.360825,-0.123763 1.062337,-0.07411 1.012071,0.07164 1.201026,0.143178 1.201026,0.454714 0,0.184354 -0.130465,0.300111 -0.715922,0.635218 -0.39376,0.225379 -0.818865,0.491699 -0.94468,0.591819 l -0.228757,0.182037 0.552076,0.105735 c 1.007099,0.192882 1.104373,0.231857 1.136525,0.455381 0.03873,0.269291 -0.136966,0.480016 -0.38791,0.465236 -0.108092,-0.0064 -0.612235,-0.108572 -1.120311,-0.227127 z"
       id="path34" /></g></svg>
