<?xml version="1.0" encoding="UTF-8" standalone="no"?>
<!-- Created with Inkscape (http://www.inkscape.org/) -->

<svg
   width="10cm"
   height="10cm"
   viewBox="0 0 100 100"
   version="1.1"
   id="svg1"
   xml:space="preserve"
   sodipodi:docname="FAUltiere4head3.svg"
   inkscape:version="1.4.2 (ebf0e940d0, 2025-05-08)"
   inkscape:export-filename="FAUltiere4.webp"
   inkscape:export-xdpi="274.32001"
   inkscape:export-ydpi="274.32001"
   xmlns:inkscape="http://www.inkscape.org/namespaces/inkscape"
   xmlns:sodipodi="http://sodipodi.sourceforge.net/DTD/sodipodi-0.dtd"
   xmlns="http://www.w3.org/2000/svg"
   xmlns:svg="http://www.w3.org/2000/svg"><sodipodi:namedview
     id="namedview1"
     pagecolor="#ffffff"
     bordercolor="#000000"
     borderopacity="0.25"
     inkscape:showpageshadow="2"
     inkscape:pageopacity="0.0"
     inkscape:pagecheckerboard="0"
     inkscape:deskcolor="#d1d1d1"
     inkscape:document-units="mm"
     inkscape:zoom="1.4142136"
     inkscape:cx="63.63961"
     inkscape:cy="156.97771"
     inkscape:window-width="2560"
     inkscape:window-height="1388"
     inkscape:window-x="2560"
     inkscape:window-y="52"
     inkscape:window-maximized="1"
     inkscape:current-layer="layer1" /><defs
     id="defs1" /><g
     id="layer1"
     transform="translate(-14.790851,-30.240375)"><rect
       style="opacity:0.5571;fill:#654874;fill-opacity:1;stroke:none;stroke-width:0.109173;stroke-opacity:1"
       id="rect1"
       width="101.85162"
       height="101.66632"
       x="13.863596"
       y="29.404566" /><path
       style="fill:#ffffff;fill-opacity:1;stroke:#000000;stroke-width:1.53666;stroke-opacity:1"
       d="m 52.99221,110.74559 c -1.171484,-0.17481 -2.337694,-0.43092 -3.459739,-0.81031 -1.756044,-0.59379 -3.464308,-1.35727 -5.07313,-2.27812 -2.430517,-1.39118 -4.849375,-2.90505 -6.849226,-4.8655 -1.625912,-1.59388 -3.178482,-3.391873 -4.065739,-5.488745 -0.998544,-2.359865 -1.280753,-2.919846 -1.247726,-7.585346 0.02685,-3.797191 0.217334,-5.396435 0.859027,-7.213194 0.86782,-2.457008 0.744281,-2.903342 -0.893564,-3.228289 -0.614237,-0.121857 -0.792131,-0.44766 -0.72724,-1.331875 0.110511,-1.505936 1.721231,-3.48993 5.23562,-6.449025 1.545484,-1.301275 2.87095,-2.536245 2.945489,-2.744375 0.07455,-0.208134 -0.600761,-0.378419 -1.500661,-0.378419 -0.899901,0 -1.735793,-0.161174 -1.857528,-0.358129 -0.264514,-0.427933 1.635516,-2.892534 3.507343,-4.549484 1.236681,-1.094718 4.977611,-2.814243 6.134126,-2.819565 1.173499,-0.0057 3.542403,-0.888329 3.325404,-1.239438 -0.130763,-0.211524 -0.03785,-0.384581 0.20677,-0.384581 0.47751,0 0.397037,-1.503866 -0.125077,-2.336577 -0.243433,-0.388234 -0.08319,-0.417766 0.683865,-0.126188 0.88609,0.336871 1.03281,0.254612 1.270776,-0.712734 0.834886,-3.393769 3.356451,-5.669023 5.431871,-4.901274 0.78597,0.29079 0.902128,0.54589 0.689425,1.514344 -0.230053,1.047321 0.448496,4.936068 0.861275,4.936068 0.09211,0 0.692593,-0.594613 1.334453,-1.321368 1.658249,-1.877594 5.089555,-3.824797 8.088964,-4.590322 3.062572,-0.781645 3.849722,-0.603918 3.499835,0.790203 -0.233485,0.930203 -0.121656,1.011961 1.717964,1.255736 3.178563,0.4212 9.080132,2.187292 11.243204,3.364577 3.161361,1.720636 8.828513,6.938844 11.812809,13.083177 1.462152,3.028076 1.693576,4.732243 1.663962,7.474892 -0.02636,2.439022 -0.270892,5.045306 -0.543092,6.314457 -0.74279,3.46342 -2.85384,8.076289 -5.464033,11.939336 -0.820068,1.21371 -2.158797,2.973622 -3.485553,4.229505 -3.03104,2.869143 -6.431167,5.403383 -10.084701,7.421043 -2.051688,1.13303 -4.285201,1.94591 -6.543339,2.57362 -2.181562,0.60643 -4.441403,0.94315 -6.697736,1.13266 -2.361501,0.19836 -4.740925,0.0788 -7.109445,4.3e-4 -1.597507,-0.0529 -3.203768,-0.0812 -4.784647,-0.3172 z m 16.064893,-6.84248 c 6.270067,-1.30159 12.149982,-5.092477 16.748042,-10.797761 1.891241,-2.346649 4.547177,-7.281914 5.021834,-9.331553 0.31001,-1.338829 -0.230275,-1.47937 -6.929893,-1.802451 -5.875357,-0.283346 -8.390086,-0.769343 -10.64286,-2.056893 -3.623734,-2.071117 -4.398248,-4.840874 -2.124916,-7.598815 2.181269,-2.646275 4.007263,-3.338663 8.702032,-3.299682 3.508243,0.02904 4.398345,0.184721 6.491368,1.134544 1.334097,0.605444 2.78304,1.413567 3.21988,1.795838 0.75301,0.658918 0.78016,0.656395 0.522529,-0.0486 -0.591494,-1.618314 -3.302703,-5.248112 -4.893852,-6.551937 -3.154848,-2.585164 -5.773018,-3.616622 -9.665726,-3.807891 -4.707504,-0.231329 -6.95676,0.525147 -10.02486,3.371526 -1.275402,1.18323 -2.959265,3.275027 -3.741915,4.648439 -0.962303,1.688641 -1.62046,2.436122 -2.032883,2.308765 -0.33542,-0.103613 -1.341689,-0.4668 -2.236155,-0.807084 -3.745907,-1.425168 -9.746375,-0.528853 -12.982158,1.9392 -2.851848,2.175215 -5.560127,7.42625 -6.336406,12.285565 -0.668801,4.18653 0.671678,11.949589 1.452846,8.413816 0.790487,-3.577931 1.568186,-5.563763 3.04498,-7.775293 3.036063,-4.546538 6.882376,-6.772005 11.226085,-6.495429 1.971246,0.125561 2.806365,0.376398 3.473281,1.043283 0.838208,0.838209 0.855016,1.003292 0.370585,3.639363 -0.799091,4.348263 -1.685043,5.831352 -6.519992,10.914482 -2.476892,2.604047 -4.503441,5.048698 -4.503441,5.432568 0,1.33255 5.245734,3.4726 9.951544,4.05981 3.096646,0.38638 8.997514,0.0945 12.410059,-0.61389 z m -7.604345,-5.031419 c -2.729968,-0.581405 -4.999466,-2.005905 -4.999466,-3.138007 0,-0.722935 1.96605,-2.560313 2.739617,-2.560313 0.323403,0 1.0532,0.365877 1.621762,0.813148 3.46612,2.726457 14.747621,-1.648146 14.747621,-5.718647 0,-1.401838 1.685246,-2.984535 2.800868,-2.630441 0.460444,0.146113 1.230628,0.818242 1.711494,1.493565 1.020979,1.433819 0.82544,2.111721 -1.537719,5.330972 -1.516383,2.0657 -3.685528,3.740144 -7.005162,5.4075 -2.286861,1.148632 -7.130228,1.630226 -10.079015,1.002223 z m 0.820173,-8.930663 c -2.330336,-1.420908 -2.822108,-3.816089 -1.328437,-6.470061 1.384962,-2.460842 3.365769,-3.51125 6.621317,-3.51125 2.623353,0 2.843658,0.07382 3.964092,1.327783 0.801091,0.896572 1.186373,1.761975 1.186373,2.664775 0,1.712962 -2.005749,4.902927 -3.752405,5.96786 -1.762928,1.074865 -4.946097,1.084799 -6.69094,0.02067 z m 2.07693,-6.340837 c 0.370672,-1.476918 -0.09529,-2.006114 -1.025164,-1.164498 -1.010752,0.914715 -1.012925,2.199629 -0.0039,2.199629 0.484976,0 0.86505,-0.382384 1.02887,-1.035131 z m -13.59802,5.716694 c 1.724513,-1.088633 2.448852,-2.104695 2.448852,-3.435087 0,-1.28899 -0.975883,-1.018414 -3.643271,1.010147 -2.986773,2.271459 -3.157498,2.531575 -1.97325,3.006541 1.350104,0.541466 1.404403,0.531503 3.167669,-0.581601 z m 29.762519,-12.1615 c 3.982312,-0.833208 4.604131,-1.436799 2.305622,-2.238067 -3.751926,-1.30793 -7.949298,0.32569 -5.956647,2.318363 0.599643,0.599644 0.378023,0.604518 3.651025,-0.08024 z M 50.473536,64.242991 c 1.164786,-0.623376 0.584028,-1.349616 -1.166901,-1.459225 -1.85307,-0.115969 -3.249598,0.738683 -2.861122,1.751035 0.206154,0.537199 0.565344,0.616289 1.771448,0.390039 0.832087,-0.156112 1.847541,-0.462902 2.256575,-0.681832 z m 15.855393,-6.099189 c 0.941462,-0.482518 1.496722,-0.950612 1.233902,-1.04019 -0.472882,-0.161173 -3.791188,1.346472 -3.791188,1.722497 0,0.406324 0.903862,0.16518 2.557286,-0.682307 z"
       id="path34"
       sodipodi:nodetypes="aaaaassssssssscssssssssssssscscsaaaaaassssscsscssssssssssssssssccscscssssssccsssscccssccsssssssssssssssssssss" /></g></svg>
